<?xml version="1.0" standalone="no"?>
 <!DOCTYPE svg PUBLIC "-//W3C//DTD SVG 1.1//EN"
 "http://www.w3.org/Graphics/SVG/1.1/DTD/svg11.dtd">
<svg
  xmlns:svg="http://www.w3.org/2000/svg"
  xmlns="http://www.w3.org/2000/svg"
  xmlns:xlink="http://www.w3.org/1999/xlink"
  version="1.1"
  width="10.1346mm" height="10.1346mm" viewBox="0.0000 0.0000 10.1346 10.1346">
<title>SVG Image created as fractal_demo.svg date 2026/09/16 17:44:42 </title>
  <desc>Image generated by PCBNEW </desc>
<g style="fill:#000000; fill-opacity:1.0000;stroke:#000000; stroke-opacity:1.0000;
stroke-linecap:round; stroke-linejoin:round;"
 transform="translate(0 0) scale(1 1)">
</g>
<g style="fill:none;
stroke:#000000; stroke-width:0.1500; stroke-opacity:1;
stroke-linecap:round; stroke-linejoin:round;">
<path d="M-109.7750 -33.7750
L-1.7750 -33.7750
L-1.7750 -1.7750
L-109.7750 -1.7750
L-109.7750 -33.7750
" />
</g>
<g style="fill:none;
stroke:#000000; stroke-width:0.1500; stroke-opacity:1;
stroke-linecap:round; stroke-linejoin:round;">
<path d="M10.0750 10.0750
L0.2250 10.0750
L0.2250 0.2250
L10.0750 0.2250
L10.0750 10.0750
" />
</g>
<g style="fill:none;
stroke:#000000; stroke-width:0.1500; stroke-opacity:1;
stroke-linecap:round; stroke-linejoin:round;">
<path d="M60.0750 12.0750
L60.0750 10.0750
" />
</g>
<g style="fill:none;
stroke:#000000; stroke-width:0.1500; stroke-opacity:1;
stroke-linecap:round; stroke-linejoin:round;">
<text x="35.0750" y="11.7250"
textLength="1.4281" font-size="1.7333" lengthAdjust="spacingAndGlyphs"
text-anchor="start" opacity="0" stroke-opacity="0">1</text>
<g class="stroked-text"><desc>1</desc>
<path d="M36.1642 11.6686
L35.4213 11.6686
" />
<path d="M35.7927 11.6686
L35.7927 10.3686
" />
<path d="M35.7927 10.3686
L35.6689 10.5543
" />
<path d="M35.6689 10.5543
L35.5451 10.6781
" />
<path d="M35.5451 10.6781
L35.4213 10.7400
" />
</g></g>
<g style="fill:none;
stroke:#000000; stroke-width:0.1500; stroke-opacity:1;
stroke-linecap:round; stroke-linejoin:round;">
<path d="M60.0750 -1.7750
L60.0750 0.2250
" />
</g>
<g style="fill:none;
stroke:#000000; stroke-width:0.1500; stroke-opacity:1;
stroke-linecap:round; stroke-linejoin:round;">
<text x="35.0750" y="-0.1250"
textLength="1.4281" font-size="1.7333" lengthAdjust="spacingAndGlyphs"
text-anchor="start" opacity="0" stroke-opacity="0">1</text>
<g class="stroked-text"><desc>1</desc>
<path d="M36.1642 -0.1814
L35.4213 -0.1814
" />
<path d="M35.7927 -0.1814
L35.7927 -1.4814
" />
<path d="M35.7927 -1.4814
L35.6689 -1.2957
" />
<path d="M35.6689 -1.2957
L35.5451 -1.1719
" />
<path d="M35.5451 -1.1719
L35.4213 -1.1100
" />
</g></g>
<g style="fill:none;
stroke:#000000; stroke-width:0.1500; stroke-opacity:1;
stroke-linecap:round; stroke-linejoin:round;">
<path d="M10.0750 60.0750
L12.0750 60.0750
" />
</g>
<g style="fill:none;
stroke:#000000; stroke-width:0.1500; stroke-opacity:1;
stroke-linecap:round; stroke-linejoin:round;">
<text x="11.0750" y="35.7250"
textLength="1.3043" font-size="1.7333" lengthAdjust="spacingAndGlyphs"
text-anchor="middle" opacity="0" stroke-opacity="0">A</text>
<g class="stroked-text"><desc>A</desc>
<path d="M10.7655 35.2972
L11.3845 35.2972
" />
<path d="M10.6417 35.6686
L11.0750 34.3686
" />
<path d="M11.0750 34.3686
L11.5083 35.6686
" />
</g></g>
<g style="fill:none;
stroke:#000000; stroke-width:0.1500; stroke-opacity:1;
stroke-linecap:round; stroke-linejoin:round;">
<path d="M0.2250 60.0750
L-1.7750 60.0750
" />
</g>
<g style="fill:none;
stroke:#000000; stroke-width:0.1500; stroke-opacity:1;
stroke-linecap:round; stroke-linejoin:round;">
<text x="-0.7750" y="35.7250"
textLength="1.3043" font-size="1.7333" lengthAdjust="spacingAndGlyphs"
text-anchor="middle" opacity="0" stroke-opacity="0">A</text>
<g class="stroked-text"><desc>A</desc>
<path d="M-1.0845 35.2972
L-0.4655 35.2972
" />
<path d="M-1.2083 35.6686
L-0.7750 34.3686
" />
<path d="M-0.7750 34.3686
L-0.3417 35.6686
" />
</g></g>
<g style="fill:none;
stroke:#000000; stroke-width:0.1500; stroke-opacity:1;
stroke-linecap:round; stroke-linejoin:round;">
<text x="-86.7750" y="-5.9250"
textLength="7.0071" font-size="2.0000" lengthAdjust="spacingAndGlyphs"
text-anchor="start" opacity="0" stroke-opacity="0">Date: </text>
<g class="stroked-text"><desc>Date: </desc>
<path d="M-86.3192 -5.9889
L-86.3192 -7.4889
" />
<path d="M-86.3192 -7.4889
L-85.9620 -7.4889
" />
<path d="M-85.9620 -7.4889
L-85.7477 -7.4174
" />
<path d="M-85.7477 -7.4174
L-85.6049 -7.2746
" />
<path d="M-85.6049 -7.2746
L-85.5335 -7.1317
" />
<path d="M-85.5335 -7.1317
L-85.4620 -6.8460
" />
<path d="M-85.4620 -6.8460
L-85.4620 -6.6317
" />
<path d="M-85.4620 -6.6317
L-85.5335 -6.3460
" />
<path d="M-85.5335 -6.3460
L-85.6049 -6.2032
" />
<path d="M-85.6049 -6.2032
L-85.7477 -6.0603
" />
<path d="M-85.7477 -6.0603
L-85.9620 -5.9889
" />
<path d="M-85.9620 -5.9889
L-86.3192 -5.9889
" />
<path d="M-84.1763 -5.9889
L-84.1763 -6.7746
" />
<path d="M-84.1763 -6.7746
L-84.2477 -6.9174
" />
<path d="M-84.2477 -6.9174
L-84.3906 -6.9889
" />
<path d="M-84.3906 -6.9889
L-84.6763 -6.9889
" />
<path d="M-84.6763 -6.9889
L-84.8192 -6.9174
" />
<path d="M-84.1763 -6.0603
L-84.3192 -5.9889
" />
<path d="M-84.3192 -5.9889
L-84.6763 -5.9889
" />
<path d="M-84.6763 -5.9889
L-84.8192 -6.0603
" />
<path d="M-84.8192 -6.0603
L-84.8906 -6.2032
" />
<path d="M-84.8906 -6.2032
L-84.8906 -6.3460
" />
<path d="M-84.8906 -6.3460
L-84.8192 -6.4889
" />
<path d="M-84.8192 -6.4889
L-84.6763 -6.5603
" />
<path d="M-84.6763 -6.5603
L-84.3192 -6.5603
" />
<path d="M-84.3192 -6.5603
L-84.1763 -6.6317
" />
<path d="M-83.6763 -6.9889
L-83.1049 -6.9889
" />
<path d="M-83.4620 -7.4889
L-83.4620 -6.2032
" />
<path d="M-83.4620 -6.2032
L-83.3906 -6.0603
" />
<path d="M-83.3906 -6.0603
L-83.2477 -5.9889
" />
<path d="M-83.2477 -5.9889
L-83.1049 -5.9889
" />
<path d="M-82.0335 -6.0603
L-82.1763 -5.9889
" />
<path d="M-82.1763 -5.9889
L-82.4620 -5.9889
" />
<path d="M-82.4620 -5.9889
L-82.6049 -6.0603
" />
<path d="M-82.6049 -6.0603
L-82.6763 -6.2032
" />
<path d="M-82.6763 -6.2032
L-82.6763 -6.7746
" />
<path d="M-82.6763 -6.7746
L-82.6049 -6.9174
" />
<path d="M-82.6049 -6.9174
L-82.4620 -6.9889
" />
<path d="M-82.4620 -6.9889
L-82.1763 -6.9889
" />
<path d="M-82.1763 -6.9889
L-82.0335 -6.9174
" />
<path d="M-82.0335 -6.9174
L-81.9620 -6.7746
" />
<path d="M-81.9620 -6.7746
L-81.9620 -6.6317
" />
<path d="M-81.9620 -6.6317
L-82.6763 -6.4889
" />
<path d="M-81.3192 -6.1317
L-81.2477 -6.0603
" />
<path d="M-81.2477 -6.0603
L-81.3192 -5.9889
" />
<path d="M-81.3192 -5.9889
L-81.3906 -6.0603
" />
<path d="M-81.3906 -6.0603
L-81.3192 -6.1317
" />
<path d="M-81.3192 -6.1317
L-81.3192 -5.9889
" />
<path d="M-81.3192 -6.9174
L-81.2477 -6.8460
" />
<path d="M-81.2477 -6.8460
L-81.3192 -6.7746
" />
<path d="M-81.3192 -6.7746
L-81.3906 -6.8460
" />
<path d="M-81.3906 -6.8460
L-81.3192 -6.9174
" />
<path d="M-81.3192 -6.9174
L-81.3192 -6.7746
" />
</g></g>
<g style="fill:none;
stroke:#000000; stroke-width:0.1500; stroke-opacity:1;
stroke-linecap:round; stroke-linejoin:round;">
<path d="M-109.7750 -5.2750
L-1.7750 -5.2750
" />
</g>
<g style="fill:none;
stroke:#000000; stroke-width:0.1500; stroke-opacity:1;
stroke-linecap:round; stroke-linejoin:round;">
<text x="-108.7750" y="-3.1250"
textLength="20.8643" font-size="2.0000" lengthAdjust="spacingAndGlyphs"
text-anchor="start" opacity="0" stroke-opacity="0">KiCad E.D.A. 9.0.9</text>
<g class="stroked-text"><desc>KiCad E.D.A. 9.0.9</desc>
<path d="M-108.3192 -3.1889
L-108.3192 -4.6889
" />
<path d="M-107.4620 -3.1889
L-108.1049 -4.0460
" />
<path d="M-107.4620 -4.6889
L-108.3192 -3.8317
" />
<path d="M-106.8192 -3.1889
L-106.8192 -4.1889
" />
<path d="M-106.8192 -4.6889
L-106.8906 -4.6174
" />
<path d="M-106.8906 -4.6174
L-106.8192 -4.5460
" />
<path d="M-106.8192 -4.5460
L-106.7477 -4.6174
" />
<path d="M-106.7477 -4.6174
L-106.8192 -4.6889
" />
<path d="M-106.8192 -4.6889
L-106.8192 -4.5460
" />
<path d="M-105.2477 -3.3317
L-105.3192 -3.2603
" />
<path d="M-105.3192 -3.2603
L-105.5335 -3.1889
" />
<path d="M-105.5335 -3.1889
L-105.6763 -3.1889
" />
<path d="M-105.6763 -3.1889
L-105.8906 -3.2603
" />
<path d="M-105.8906 -3.2603
L-106.0335 -3.4032
" />
<path d="M-106.0335 -3.4032
L-106.1049 -3.5460
" />
<path d="M-106.1049 -3.5460
L-106.1763 -3.8317
" />
<path d="M-106.1763 -3.8317
L-106.1763 -4.0460
" />
<path d="M-106.1763 -4.0460
L-106.1049 -4.3317
" />
<path d="M-106.1049 -4.3317
L-106.0335 -4.4746
" />
<path d="M-106.0335 -4.4746
L-105.8906 -4.6174
" />
<path d="M-105.8906 -4.6174
L-105.6763 -4.6889
" />
<path d="M-105.6763 -4.6889
L-105.5335 -4.6889
" />
<path d="M-105.5335 -4.6889
L-105.3192 -4.6174
" />
<path d="M-105.3192 -4.6174
L-105.2477 -4.5460
" />
<path d="M-103.9620 -3.1889
L-103.9620 -3.9746
" />
<path d="M-103.9620 -3.9746
L-104.0335 -4.1174
" />
<path d="M-104.0335 -4.1174
L-104.1763 -4.1889
" />
<path d="M-104.1763 -4.1889
L-104.4620 -4.1889
" />
<path d="M-104.4620 -4.1889
L-104.6049 -4.1174
" />
<path d="M-103.9620 -3.2603
L-104.1049 -3.1889
" />
<path d="M-104.1049 -3.1889
L-104.4620 -3.1889
" />
<path d="M-104.4620 -3.1889
L-104.6049 -3.2603
" />
<path d="M-104.6049 -3.2603
L-104.6763 -3.4032
" />
<path d="M-104.6763 -3.4032
L-104.6763 -3.5460
" />
<path d="M-104.6763 -3.5460
L-104.6049 -3.6889
" />
<path d="M-104.6049 -3.6889
L-104.4620 -3.7603
" />
<path d="M-104.4620 -3.7603
L-104.1049 -3.7603
" />
<path d="M-104.1049 -3.7603
L-103.9620 -3.8317
" />
<path d="M-102.6049 -3.1889
L-102.6049 -4.6889
" />
<path d="M-102.6049 -3.2603
L-102.7477 -3.1889
" />
<path d="M-102.7477 -3.1889
L-103.0335 -3.1889
" />
<path d="M-103.0335 -3.1889
L-103.1763 -3.2603
" />
<path d="M-103.1763 -3.2603
L-103.2477 -3.3317
" />
<path d="M-103.2477 -3.3317
L-103.3192 -3.4746
" />
<path d="M-103.3192 -3.4746
L-103.3192 -3.9032
" />
<path d="M-103.3192 -3.9032
L-103.2477 -4.0460
" />
<path d="M-103.2477 -4.0460
L-103.1763 -4.1174
" />
<path d="M-103.1763 -4.1174
L-103.0335 -4.1889
" />
<path d="M-103.0335 -4.1889
L-102.7477 -4.1889
" />
<path d="M-102.7477 -4.1889
L-102.6049 -4.1174
" />
<path d="M-100.7477 -3.9746
L-100.2477 -3.9746
" />
<path d="M-100.0335 -3.1889
L-100.7477 -3.1889
" />
<path d="M-100.7477 -3.1889
L-100.7477 -4.6889
" />
<path d="M-100.7477 -4.6889
L-100.0335 -4.6889
" />
<path d="M-99.3906 -3.3317
L-99.3192 -3.2603
" />
<path d="M-99.3192 -3.2603
L-99.3906 -3.1889
" />
<path d="M-99.3906 -3.1889
L-99.4620 -3.2603
" />
<path d="M-99.4620 -3.2603
L-99.3906 -3.3317
" />
<path d="M-99.3906 -3.3317
L-99.3906 -3.1889
" />
<path d="M-98.6763 -3.1889
L-98.6763 -4.6889
" />
<path d="M-98.6763 -4.6889
L-98.3192 -4.6889
" />
<path d="M-98.3192 -4.6889
L-98.1049 -4.6174
" />
<path d="M-98.1049 -4.6174
L-97.9620 -4.4746
" />
<path d="M-97.9620 -4.4746
L-97.8906 -4.3317
" />
<path d="M-97.8906 -4.3317
L-97.8192 -4.0460
" />
<path d="M-97.8192 -4.0460
L-97.8192 -3.8317
" />
<path d="M-97.8192 -3.8317
L-97.8906 -3.5460
" />
<path d="M-97.8906 -3.5460
L-97.9620 -3.4032
" />
<path d="M-97.9620 -3.4032
L-98.1049 -3.2603
" />
<path d="M-98.1049 -3.2603
L-98.3192 -3.1889
" />
<path d="M-98.3192 -3.1889
L-98.6763 -3.1889
" />
<path d="M-97.1763 -3.3317
L-97.1049 -3.2603
" />
<path d="M-97.1049 -3.2603
L-97.1763 -3.1889
" />
<path d="M-97.1763 -3.1889
L-97.2477 -3.2603
" />
<path d="M-97.2477 -3.2603
L-97.1763 -3.3317
" />
<path d="M-97.1763 -3.3317
L-97.1763 -3.1889
" />
<path d="M-96.5335 -3.6174
L-95.8192 -3.6174
" />
<path d="M-96.6763 -3.1889
L-96.1763 -4.6889
" />
<path d="M-96.1763 -4.6889
L-95.6763 -3.1889
" />
<path d="M-95.1763 -3.3317
L-95.1049 -3.2603
" />
<path d="M-95.1049 -3.2603
L-95.1763 -3.1889
" />
<path d="M-95.1763 -3.1889
L-95.2477 -3.2603
" />
<path d="M-95.2477 -3.2603
L-95.1763 -3.3317
" />
<path d="M-95.1763 -3.3317
L-95.1763 -3.1889
" />
<path d="M-93.2477 -3.1889
L-92.9620 -3.1889
" />
<path d="M-92.9620 -3.1889
L-92.8192 -3.2603
" />
<path d="M-92.8192 -3.2603
L-92.7477 -3.3317
" />
<path d="M-92.7477 -3.3317
L-92.6049 -3.5460
" />
<path d="M-92.6049 -3.5460
L-92.5335 -3.8317
" />
<path d="M-92.5335 -3.8317
L-92.5335 -4.4032
" />
<path d="M-92.5335 -4.4032
L-92.6049 -4.5460
" />
<path d="M-92.6049 -4.5460
L-92.6763 -4.6174
" />
<path d="M-92.6763 -4.6174
L-92.8192 -4.6889
" />
<path d="M-92.8192 -4.6889
L-93.1049 -4.6889
" />
<path d="M-93.1049 -4.6889
L-93.2477 -4.6174
" />
<path d="M-93.2477 -4.6174
L-93.3192 -4.5460
" />
<path d="M-93.3192 -4.5460
L-93.3906 -4.4032
" />
<path d="M-93.3906 -4.4032
L-93.3906 -4.0460
" />
<path d="M-93.3906 -4.0460
L-93.3192 -3.9032
" />
<path d="M-93.3192 -3.9032
L-93.2477 -3.8317
" />
<path d="M-93.2477 -3.8317
L-93.1049 -3.7603
" />
<path d="M-93.1049 -3.7603
L-92.8192 -3.7603
" />
<path d="M-92.8192 -3.7603
L-92.6763 -3.8317
" />
<path d="M-92.6763 -3.8317
L-92.6049 -3.9032
" />
<path d="M-92.6049 -3.9032
L-92.5335 -4.0460
" />
<path d="M-91.8906 -3.3317
L-91.8192 -3.2603
" />
<path d="M-91.8192 -3.2603
L-91.8906 -3.1889
" />
<path d="M-91.8906 -3.1889
L-91.9620 -3.2603
" />
<path d="M-91.9620 -3.2603
L-91.8906 -3.3317
" />
<path d="M-91.8906 -3.3317
L-91.8906 -3.1889
" />
<path d="M-90.8906 -4.6889
L-90.7477 -4.6889
" />
<path d="M-90.7477 -4.6889
L-90.6049 -4.6174
" />
<path d="M-90.6049 -4.6174
L-90.5335 -4.5460
" />
<path d="M-90.5335 -4.5460
L-90.4620 -4.4032
" />
<path d="M-90.4620 -4.4032
L-90.3906 -4.1174
" />
<path d="M-90.3906 -4.1174
L-90.3906 -3.7603
" />
<path d="M-90.3906 -3.7603
L-90.4620 -3.4746
" />
<path d="M-90.4620 -3.4746
L-90.5335 -3.3317
" />
<path d="M-90.5335 -3.3317
L-90.6049 -3.2603
" />
<path d="M-90.6049 -3.2603
L-90.7477 -3.1889
" />
<path d="M-90.7477 -3.1889
L-90.8906 -3.1889
" />
<path d="M-90.8906 -3.1889
L-91.0335 -3.2603
" />
<path d="M-91.0335 -3.2603
L-91.1049 -3.3317
" />
<path d="M-91.1049 -3.3317
L-91.1763 -3.4746
" />
<path d="M-91.1763 -3.4746
L-91.2477 -3.7603
" />
<path d="M-91.2477 -3.7603
L-91.2477 -4.1174
" />
<path d="M-91.2477 -4.1174
L-91.1763 -4.4032
" />
<path d="M-91.1763 -4.4032
L-91.1049 -4.5460
" />
<path d="M-91.1049 -4.5460
L-91.0335 -4.6174
" />
<path d="M-91.0335 -4.6174
L-90.8906 -4.6889
" />
<path d="M-89.7477 -3.3317
L-89.6763 -3.2603
" />
<path d="M-89.6763 -3.2603
L-89.7477 -3.1889
" />
<path d="M-89.7477 -3.1889
L-89.8192 -3.2603
" />
<path d="M-89.8192 -3.2603
L-89.7477 -3.3317
" />
<path d="M-89.7477 -3.3317
L-89.7477 -3.1889
" />
<path d="M-88.9620 -3.1889
L-88.6763 -3.1889
" />
<path d="M-88.6763 -3.1889
L-88.5335 -3.2603
" />
<path d="M-88.5335 -3.2603
L-88.4620 -3.3317
" />
<path d="M-88.4620 -3.3317
L-88.3192 -3.5460
" />
<path d="M-88.3192 -3.5460
L-88.2477 -3.8317
" />
<path d="M-88.2477 -3.8317
L-88.2477 -4.4032
" />
<path d="M-88.2477 -4.4032
L-88.3192 -4.5460
" />
<path d="M-88.3192 -4.5460
L-88.3906 -4.6174
" />
<path d="M-88.3906 -4.6174
L-88.5335 -4.6889
" />
<path d="M-88.5335 -4.6889
L-88.8192 -4.6889
" />
<path d="M-88.8192 -4.6889
L-88.9620 -4.6174
" />
<path d="M-88.9620 -4.6174
L-89.0335 -4.5460
" />
<path d="M-89.0335 -4.5460
L-89.1049 -4.4032
" />
<path d="M-89.1049 -4.4032
L-89.1049 -4.0460
" />
<path d="M-89.1049 -4.0460
L-89.0335 -3.9032
" />
<path d="M-89.0335 -3.9032
L-88.9620 -3.8317
" />
<path d="M-88.9620 -3.8317
L-88.8192 -3.7603
" />
<path d="M-88.8192 -3.7603
L-88.5335 -3.7603
" />
<path d="M-88.5335 -3.7603
L-88.3906 -3.8317
" />
<path d="M-88.3906 -3.8317
L-88.3192 -3.9032
" />
<path d="M-88.3192 -3.9032
L-88.2477 -4.0460
" />
</g></g>
<g style="fill:none;
stroke:#000000; stroke-width:0.1500; stroke-opacity:1;
stroke-linecap:round; stroke-linejoin:round;">
<path d="M-109.7750 -8.2750
L-1.7750 -8.2750
" />
</g>
<g style="fill:none;
stroke:#000000; stroke-width:0.3000; stroke-opacity:1;
stroke-linecap:round; stroke-linejoin:round;">
<text x="-23.7750" y="-5.9250"
textLength="6.3857" font-size="2.0000" lengthAdjust="spacingAndGlyphs"
text-anchor="start" opacity="0" stroke-opacity="0">Rev: </text>
<g class="stroked-text"><desc>Rev: </desc>
<path d="M-22.3633 -5.9967
L-22.8633 -6.7110
" />
<path d="M-23.2205 -5.9967
L-23.2205 -7.4967
" />
<path d="M-23.2205 -7.4967
L-22.6491 -7.4967
" />
<path d="M-22.6491 -7.4967
L-22.5062 -7.4252
" />
<path d="M-22.5062 -7.4252
L-22.4348 -7.3538
" />
<path d="M-22.4348 -7.3538
L-22.3633 -7.2110
" />
<path d="M-22.3633 -7.2110
L-22.3633 -6.9967
" />
<path d="M-22.3633 -6.9967
L-22.4348 -6.8538
" />
<path d="M-22.4348 -6.8538
L-22.5062 -6.7824
" />
<path d="M-22.5062 -6.7824
L-22.6491 -6.7110
" />
<path d="M-22.6491 -6.7110
L-23.2205 -6.7110
" />
<path d="M-21.1491 -6.0681
L-21.2919 -5.9967
" />
<path d="M-21.2919 -5.9967
L-21.5776 -5.9967
" />
<path d="M-21.5776 -5.9967
L-21.7205 -6.0681
" />
<path d="M-21.7205 -6.0681
L-21.7919 -6.2110
" />
<path d="M-21.7919 -6.2110
L-21.7919 -6.7824
" />
<path d="M-21.7919 -6.7824
L-21.7205 -6.9252
" />
<path d="M-21.7205 -6.9252
L-21.5776 -6.9967
" />
<path d="M-21.5776 -6.9967
L-21.2919 -6.9967
" />
<path d="M-21.2919 -6.9967
L-21.1491 -6.9252
" />
<path d="M-21.1491 -6.9252
L-21.0776 -6.7824
" />
<path d="M-21.0776 -6.7824
L-21.0776 -6.6395
" />
<path d="M-21.0776 -6.6395
L-21.7919 -6.4967
" />
<path d="M-20.5776 -6.9967
L-20.2205 -5.9967
" />
<path d="M-20.2205 -5.9967
L-19.8633 -6.9967
" />
<path d="M-19.2919 -6.1395
L-19.2205 -6.0681
" />
<path d="M-19.2205 -6.0681
L-19.2919 -5.9967
" />
<path d="M-19.2919 -5.9967
L-19.3633 -6.0681
" />
<path d="M-19.3633 -6.0681
L-19.2919 -6.1395
" />
<path d="M-19.2919 -6.1395
L-19.2919 -5.9967
" />
<path d="M-19.2919 -6.9252
L-19.2205 -6.8538
" />
<path d="M-19.2205 -6.8538
L-19.2919 -6.7824
" />
<path d="M-19.2919 -6.7824
L-19.3633 -6.8538
" />
<path d="M-19.3633 -6.8538
L-19.2919 -6.9252
" />
<path d="M-19.2919 -6.9252
L-19.2919 -6.7824
" />
</g></g>
<g style="fill:none;
stroke:#000000; stroke-width:0.1500; stroke-opacity:1;
stroke-linecap:round; stroke-linejoin:round;">
<text x="-108.7750" y="-5.9250"
textLength="11.6500" font-size="2.0000" lengthAdjust="spacingAndGlyphs"
text-anchor="start" opacity="0" stroke-opacity="0">Size: User</text>
<g class="stroked-text"><desc>Size: User</desc>
<path d="M-108.3906 -6.0603
L-108.1763 -5.9889
" />
<path d="M-108.1763 -5.9889
L-107.8192 -5.9889
" />
<path d="M-107.8192 -5.9889
L-107.6763 -6.0603
" />
<path d="M-107.6763 -6.0603
L-107.6049 -6.1317
" />
<path d="M-107.6049 -6.1317
L-107.5335 -6.2746
" />
<path d="M-107.5335 -6.2746
L-107.5335 -6.4174
" />
<path d="M-107.5335 -6.4174
L-107.6049 -6.5603
" />
<path d="M-107.6049 -6.5603
L-107.6763 -6.6317
" />
<path d="M-107.6763 -6.6317
L-107.8192 -6.7032
" />
<path d="M-107.8192 -6.7032
L-108.1049 -6.7746
" />
<path d="M-108.1049 -6.7746
L-108.2477 -6.8460
" />
<path d="M-108.2477 -6.8460
L-108.3192 -6.9174
" />
<path d="M-108.3192 -6.9174
L-108.3906 -7.0603
" />
<path d="M-108.3906 -7.0603
L-108.3906 -7.2032
" />
<path d="M-108.3906 -7.2032
L-108.3192 -7.3460
" />
<path d="M-108.3192 -7.3460
L-108.2477 -7.4174
" />
<path d="M-108.2477 -7.4174
L-108.1049 -7.4889
" />
<path d="M-108.1049 -7.4889
L-107.7477 -7.4889
" />
<path d="M-107.7477 -7.4889
L-107.5335 -7.4174
" />
<path d="M-106.8906 -5.9889
L-106.8906 -6.9889
" />
<path d="M-106.8906 -7.4889
L-106.9620 -7.4174
" />
<path d="M-106.9620 -7.4174
L-106.8906 -7.3460
" />
<path d="M-106.8906 -7.3460
L-106.8192 -7.4174
" />
<path d="M-106.8192 -7.4174
L-106.8906 -7.4889
" />
<path d="M-106.8906 -7.4889
L-106.8906 -7.3460
" />
<path d="M-106.3192 -6.9889
L-105.5335 -6.9889
" />
<path d="M-105.5335 -6.9889
L-106.3192 -5.9889
" />
<path d="M-106.3192 -5.9889
L-105.5335 -5.9889
" />
<path d="M-104.3906 -6.0603
L-104.5335 -5.9889
" />
<path d="M-104.5335 -5.9889
L-104.8192 -5.9889
" />
<path d="M-104.8192 -5.9889
L-104.9620 -6.0603
" />
<path d="M-104.9620 -6.0603
L-105.0335 -6.2032
" />
<path d="M-105.0335 -6.2032
L-105.0335 -6.7746
" />
<path d="M-105.0335 -6.7746
L-104.9620 -6.9174
" />
<path d="M-104.9620 -6.9174
L-104.8192 -6.9889
" />
<path d="M-104.8192 -6.9889
L-104.5335 -6.9889
" />
<path d="M-104.5335 -6.9889
L-104.3906 -6.9174
" />
<path d="M-104.3906 -6.9174
L-104.3192 -6.7746
" />
<path d="M-104.3192 -6.7746
L-104.3192 -6.6317
" />
<path d="M-104.3192 -6.6317
L-105.0335 -6.4889
" />
<path d="M-103.6763 -6.1317
L-103.6049 -6.0603
" />
<path d="M-103.6049 -6.0603
L-103.6763 -5.9889
" />
<path d="M-103.6763 -5.9889
L-103.7477 -6.0603
" />
<path d="M-103.7477 -6.0603
L-103.6763 -6.1317
" />
<path d="M-103.6763 -6.1317
L-103.6763 -5.9889
" />
<path d="M-103.6763 -6.9174
L-103.6049 -6.8460
" />
<path d="M-103.6049 -6.8460
L-103.6763 -6.7746
" />
<path d="M-103.6763 -6.7746
L-103.7477 -6.8460
" />
<path d="M-103.7477 -6.8460
L-103.6763 -6.9174
" />
<path d="M-103.6763 -6.9174
L-103.6763 -6.7746
" />
<path d="M-101.8192 -7.4889
L-101.8192 -6.2746
" />
<path d="M-101.8192 -6.2746
L-101.7477 -6.1317
" />
<path d="M-101.7477 -6.1317
L-101.6763 -6.0603
" />
<path d="M-101.6763 -6.0603
L-101.5335 -5.9889
" />
<path d="M-101.5335 -5.9889
L-101.2477 -5.9889
" />
<path d="M-101.2477 -5.9889
L-101.1049 -6.0603
" />
<path d="M-101.1049 -6.0603
L-101.0335 -6.1317
" />
<path d="M-101.0335 -6.1317
L-100.9620 -6.2746
" />
<path d="M-100.9620 -6.2746
L-100.9620 -7.4889
" />
<path d="M-100.3192 -6.0603
L-100.1763 -5.9889
" />
<path d="M-100.1763 -5.9889
L-99.8906 -5.9889
" />
<path d="M-99.8906 -5.9889
L-99.7477 -6.0603
" />
<path d="M-99.7477 -6.0603
L-99.6763 -6.2032
" />
<path d="M-99.6763 -6.2032
L-99.6763 -6.2746
" />
<path d="M-99.6763 -6.2746
L-99.7477 -6.4174
" />
<path d="M-99.7477 -6.4174
L-99.8906 -6.4889
" />
<path d="M-99.8906 -6.4889
L-100.1049 -6.4889
" />
<path d="M-100.1049 -6.4889
L-100.2477 -6.5603
" />
<path d="M-100.2477 -6.5603
L-100.3192 -6.7032
" />
<path d="M-100.3192 -6.7032
L-100.3192 -6.7746
" />
<path d="M-100.3192 -6.7746
L-100.2477 -6.9174
" />
<path d="M-100.2477 -6.9174
L-100.1049 -6.9889
" />
<path d="M-100.1049 -6.9889
L-99.8906 -6.9889
" />
<path d="M-99.8906 -6.9889
L-99.7477 -6.9174
" />
<path d="M-98.4620 -6.0603
L-98.6049 -5.9889
" />
<path d="M-98.6049 -5.9889
L-98.8906 -5.9889
" />
<path d="M-98.8906 -5.9889
L-99.0335 -6.0603
" />
<path d="M-99.0335 -6.0603
L-99.1049 -6.2032
" />
<path d="M-99.1049 -6.2032
L-99.1049 -6.7746
" />
<path d="M-99.1049 -6.7746
L-99.0335 -6.9174
" />
<path d="M-99.0335 -6.9174
L-98.8906 -6.9889
" />
<path d="M-98.8906 -6.9889
L-98.6049 -6.9889
" />
<path d="M-98.6049 -6.9889
L-98.4620 -6.9174
" />
<path d="M-98.4620 -6.9174
L-98.3906 -6.7746
" />
<path d="M-98.3906 -6.7746
L-98.3906 -6.6317
" />
<path d="M-98.3906 -6.6317
L-99.1049 -6.4889
" />
<path d="M-97.7477 -5.9889
L-97.7477 -6.9889
" />
<path d="M-97.7477 -6.7032
L-97.6763 -6.8460
" />
<path d="M-97.6763 -6.8460
L-97.6049 -6.9174
" />
<path d="M-97.6049 -6.9174
L-97.4620 -6.9889
" />
<path d="M-97.4620 -6.9889
L-97.3192 -6.9889
" />
</g></g>
<g style="fill:none;
stroke:#000000; stroke-width:0.1500; stroke-opacity:1;
stroke-linecap:round; stroke-linejoin:round;">
<text x="-23.7750" y="-3.1250"
textLength="8.5071" font-size="2.0000" lengthAdjust="spacingAndGlyphs"
text-anchor="start" opacity="0" stroke-opacity="0">Id: 1/1</text>
<g class="stroked-text"><desc>Id: 1/1</desc>
<path d="M-23.3192 -3.1889
L-23.3192 -4.6889
" />
<path d="M-21.9620 -3.1889
L-21.9620 -4.6889
" />
<path d="M-21.9620 -3.2603
L-22.1049 -3.1889
" />
<path d="M-22.1049 -3.1889
L-22.3906 -3.1889
" />
<path d="M-22.3906 -3.1889
L-22.5335 -3.2603
" />
<path d="M-22.5335 -3.2603
L-22.6049 -3.3317
" />
<path d="M-22.6049 -3.3317
L-22.6763 -3.4746
" />
<path d="M-22.6763 -3.4746
L-22.6763 -3.9032
" />
<path d="M-22.6763 -3.9032
L-22.6049 -4.0460
" />
<path d="M-22.6049 -4.0460
L-22.5335 -4.1174
" />
<path d="M-22.5335 -4.1174
L-22.3906 -4.1889
" />
<path d="M-22.3906 -4.1889
L-22.1049 -4.1889
" />
<path d="M-22.1049 -4.1889
L-21.9620 -4.1174
" />
<path d="M-21.2477 -3.3317
L-21.1763 -3.2603
" />
<path d="M-21.1763 -3.2603
L-21.2477 -3.1889
" />
<path d="M-21.2477 -3.1889
L-21.3192 -3.2603
" />
<path d="M-21.3192 -3.2603
L-21.2477 -3.3317
" />
<path d="M-21.2477 -3.3317
L-21.2477 -3.1889
" />
<path d="M-21.2477 -4.1174
L-21.1763 -4.0460
" />
<path d="M-21.1763 -4.0460
L-21.2477 -3.9746
" />
<path d="M-21.2477 -3.9746
L-21.3192 -4.0460
" />
<path d="M-21.3192 -4.0460
L-21.2477 -4.1174
" />
<path d="M-21.2477 -4.1174
L-21.2477 -3.9746
" />
<path d="M-18.6049 -3.1889
L-19.4620 -3.1889
" />
<path d="M-19.0335 -3.1889
L-19.0335 -4.6889
" />
<path d="M-19.0335 -4.6889
L-19.1763 -4.4746
" />
<path d="M-19.1763 -4.4746
L-19.3192 -4.3317
" />
<path d="M-19.3192 -4.3317
L-19.4620 -4.2603
" />
<path d="M-16.8906 -4.7603
L-18.1763 -2.8317
" />
<path d="M-15.6049 -3.1889
L-16.4620 -3.1889
" />
<path d="M-16.0335 -3.1889
L-16.0335 -4.6889
" />
<path d="M-16.0335 -4.6889
L-16.1763 -4.4746
" />
<path d="M-16.1763 -4.4746
L-16.3192 -4.3317
" />
<path d="M-16.3192 -4.3317
L-16.4620 -4.2603
" />
</g></g>
<g style="fill:none;
stroke:#000000; stroke-width:0.1500; stroke-opacity:1;
stroke-linecap:round; stroke-linejoin:round;">
<path d="M-109.7750 -12.2750
L-1.7750 -12.2750
" />
</g>
<g style="fill:none;
stroke:#000000; stroke-width:0.4000; stroke-opacity:1;
stroke-linecap:round; stroke-linejoin:round;">
<text x="-108.7750" y="-9.4750"
textLength="9.6571" font-size="2.6667" lengthAdjust="spacingAndGlyphs"
text-anchor="start" opacity="0" stroke-opacity="0">Title: </text>
<g class="stroked-text"><desc>Title: </desc>
<path d="M-108.0833 -11.5706
L-106.9404 -11.5706
" />
<path d="M-107.7618 -9.5706
L-107.5118 -11.5706
" />
<path d="M-106.5237 -9.5706
L-106.3571 -10.9039
" />
<path d="M-106.2737 -11.5706
L-106.3809 -11.4753
" />
<path d="M-106.3809 -11.4753
L-106.2976 -11.3801
" />
<path d="M-106.2976 -11.3801
L-106.1904 -11.4753
" />
<path d="M-106.1904 -11.4753
L-106.2737 -11.5706
" />
<path d="M-106.2737 -11.5706
L-106.2976 -11.3801
" />
<path d="M-105.6904 -10.9039
L-104.9285 -10.9039
" />
<path d="M-105.3214 -11.5706
L-105.5357 -9.8563
" />
<path d="M-105.5357 -9.8563
L-105.4642 -9.6658
" />
<path d="M-105.4642 -9.6658
L-105.2857 -9.5706
" />
<path d="M-105.2857 -9.5706
L-105.0952 -9.5706
" />
<path d="M-104.1428 -9.5706
L-104.3214 -9.6658
" />
<path d="M-104.3214 -9.6658
L-104.3928 -9.8563
" />
<path d="M-104.3928 -9.8563
L-104.1785 -11.5706
" />
<path d="M-102.6071 -9.6658
L-102.8095 -9.5706
" />
<path d="M-102.8095 -9.5706
L-103.1904 -9.5706
" />
<path d="M-103.1904 -9.5706
L-103.3690 -9.6658
" />
<path d="M-103.3690 -9.6658
L-103.4404 -9.8563
" />
<path d="M-103.4404 -9.8563
L-103.3452 -10.6182
" />
<path d="M-103.3452 -10.6182
L-103.2261 -10.8087
" />
<path d="M-103.2261 -10.8087
L-103.0237 -10.9039
" />
<path d="M-103.0237 -10.9039
L-102.6428 -10.9039
" />
<path d="M-102.6428 -10.9039
L-102.4642 -10.8087
" />
<path d="M-102.4642 -10.8087
L-102.3928 -10.6182
" />
<path d="M-102.3928 -10.6182
L-102.4166 -10.4277
" />
<path d="M-102.4166 -10.4277
L-103.3928 -10.2372
" />
<path d="M-101.6428 -9.7610
L-101.5595 -9.6658
" />
<path d="M-101.5595 -9.6658
L-101.6666 -9.5706
" />
<path d="M-101.6666 -9.5706
L-101.7499 -9.6658
" />
<path d="M-101.7499 -9.6658
L-101.6428 -9.7610
" />
<path d="M-101.6428 -9.7610
L-101.6666 -9.5706
" />
<path d="M-101.5118 -10.8087
L-101.4285 -10.7134
" />
<path d="M-101.4285 -10.7134
L-101.5357 -10.6182
" />
<path d="M-101.5357 -10.6182
L-101.6190 -10.7134
" />
<path d="M-101.6190 -10.7134
L-101.5118 -10.8087
" />
<path d="M-101.5118 -10.8087
L-101.5357 -10.6182
" />
</g></g>
<g style="fill:none;
stroke:#000000; stroke-width:0.1500; stroke-opacity:1;
stroke-linecap:round; stroke-linejoin:round;">
<text x="-108.7750" y="-13.3250"
textLength="32.4357" font-size="2.0000" lengthAdjust="spacingAndGlyphs"
text-anchor="start" opacity="0" stroke-opacity="0">File: fractal_demo.kicad_pcb</text>
<g class="stroked-text"><desc>File: fractal_demo.kicad_pcb</desc>
<path d="M-107.8192 -14.1746
L-108.3192 -14.1746
" />
<path d="M-108.3192 -13.3889
L-108.3192 -14.8889
" />
<path d="M-108.3192 -14.8889
L-107.6049 -14.8889
" />
<path d="M-107.0335 -13.3889
L-107.0335 -14.3889
" />
<path d="M-107.0335 -14.8889
L-107.1049 -14.8174
" />
<path d="M-107.1049 -14.8174
L-107.0335 -14.7460
" />
<path d="M-107.0335 -14.7460
L-106.9620 -14.8174
" />
<path d="M-106.9620 -14.8174
L-107.0335 -14.8889
" />
<path d="M-107.0335 -14.8889
L-107.0335 -14.7460
" />
<path d="M-106.1049 -13.3889
L-106.2477 -13.4603
" />
<path d="M-106.2477 -13.4603
L-106.3192 -13.6032
" />
<path d="M-106.3192 -13.6032
L-106.3192 -14.8889
" />
<path d="M-104.9620 -13.4603
L-105.1049 -13.3889
" />
<path d="M-105.1049 -13.3889
L-105.3906 -13.3889
" />
<path d="M-105.3906 -13.3889
L-105.5335 -13.4603
" />
<path d="M-105.5335 -13.4603
L-105.6049 -13.6032
" />
<path d="M-105.6049 -13.6032
L-105.6049 -14.1746
" />
<path d="M-105.6049 -14.1746
L-105.5335 -14.3174
" />
<path d="M-105.5335 -14.3174
L-105.3906 -14.3889
" />
<path d="M-105.3906 -14.3889
L-105.1049 -14.3889
" />
<path d="M-105.1049 -14.3889
L-104.9620 -14.3174
" />
<path d="M-104.9620 -14.3174
L-104.8906 -14.1746
" />
<path d="M-104.8906 -14.1746
L-104.8906 -14.0317
" />
<path d="M-104.8906 -14.0317
L-105.6049 -13.8889
" />
<path d="M-104.2477 -13.5317
L-104.1763 -13.4603
" />
<path d="M-104.1763 -13.4603
L-104.2477 -13.3889
" />
<path d="M-104.2477 -13.3889
L-104.3192 -13.4603
" />
<path d="M-104.3192 -13.4603
L-104.2477 -13.5317
" />
<path d="M-104.2477 -13.5317
L-104.2477 -13.3889
" />
<path d="M-104.2477 -14.3174
L-104.1763 -14.2460
" />
<path d="M-104.1763 -14.2460
L-104.2477 -14.1746
" />
<path d="M-104.2477 -14.1746
L-104.3192 -14.2460
" />
<path d="M-104.3192 -14.2460
L-104.2477 -14.3174
" />
<path d="M-104.2477 -14.3174
L-104.2477 -14.1746
" />
<path d="M-102.6049 -14.3889
L-102.0335 -14.3889
" />
<path d="M-102.3906 -13.3889
L-102.3906 -14.6746
" />
<path d="M-102.3906 -14.6746
L-102.3192 -14.8174
" />
<path d="M-102.3192 -14.8174
L-102.1763 -14.8889
" />
<path d="M-102.1763 -14.8889
L-102.0335 -14.8889
" />
<path d="M-101.5335 -13.3889
L-101.5335 -14.3889
" />
<path d="M-101.5335 -14.1032
L-101.4620 -14.2460
" />
<path d="M-101.4620 -14.2460
L-101.3906 -14.3174
" />
<path d="M-101.3906 -14.3174
L-101.2477 -14.3889
" />
<path d="M-101.2477 -14.3889
L-101.1049 -14.3889
" />
<path d="M-99.9620 -13.3889
L-99.9620 -14.1746
" />
<path d="M-99.9620 -14.1746
L-100.0335 -14.3174
" />
<path d="M-100.0335 -14.3174
L-100.1763 -14.3889
" />
<path d="M-100.1763 -14.3889
L-100.4620 -14.3889
" />
<path d="M-100.4620 -14.3889
L-100.6049 -14.3174
" />
<path d="M-99.9620 -13.4603
L-100.1049 -13.3889
" />
<path d="M-100.1049 -13.3889
L-100.4620 -13.3889
" />
<path d="M-100.4620 -13.3889
L-100.6049 -13.4603
" />
<path d="M-100.6049 -13.4603
L-100.6763 -13.6032
" />
<path d="M-100.6763 -13.6032
L-100.6763 -13.7460
" />
<path d="M-100.6763 -13.7460
L-100.6049 -13.8889
" />
<path d="M-100.6049 -13.8889
L-100.4620 -13.9603
" />
<path d="M-100.4620 -13.9603
L-100.1049 -13.9603
" />
<path d="M-100.1049 -13.9603
L-99.9620 -14.0317
" />
<path d="M-98.6049 -13.4603
L-98.7477 -13.3889
" />
<path d="M-98.7477 -13.3889
L-99.0335 -13.3889
" />
<path d="M-99.0335 -13.3889
L-99.1763 -13.4603
" />
<path d="M-99.1763 -13.4603
L-99.2477 -13.5317
" />
<path d="M-99.2477 -13.5317
L-99.3192 -13.6746
" />
<path d="M-99.3192 -13.6746
L-99.3192 -14.1032
" />
<path d="M-99.3192 -14.1032
L-99.2477 -14.2460
" />
<path d="M-99.2477 -14.2460
L-99.1763 -14.3174
" />
<path d="M-99.1763 -14.3174
L-99.0335 -14.3889
" />
<path d="M-99.0335 -14.3889
L-98.7477 -14.3889
" />
<path d="M-98.7477 -14.3889
L-98.6049 -14.3174
" />
<path d="M-98.1763 -14.3889
L-97.6049 -14.3889
" />
<path d="M-97.9620 -14.8889
L-97.9620 -13.6032
" />
<path d="M-97.9620 -13.6032
L-97.8906 -13.4603
" />
<path d="M-97.8906 -13.4603
L-97.7477 -13.3889
" />
<path d="M-97.7477 -13.3889
L-97.6049 -13.3889
" />
<path d="M-96.4620 -13.3889
L-96.4620 -14.1746
" />
<path d="M-96.4620 -14.1746
L-96.5335 -14.3174
" />
<path d="M-96.5335 -14.3174
L-96.6763 -14.3889
" />
<path d="M-96.6763 -14.3889
L-96.9620 -14.3889
" />
<path d="M-96.9620 -14.3889
L-97.1049 -14.3174
" />
<path d="M-96.4620 -13.4603
L-96.6049 -13.3889
" />
<path d="M-96.6049 -13.3889
L-96.9620 -13.3889
" />
<path d="M-96.9620 -13.3889
L-97.1049 -13.4603
" />
<path d="M-97.1049 -13.4603
L-97.1763 -13.6032
" />
<path d="M-97.1763 -13.6032
L-97.1763 -13.7460
" />
<path d="M-97.1763 -13.7460
L-97.1049 -13.8889
" />
<path d="M-97.1049 -13.8889
L-96.9620 -13.9603
" />
<path d="M-96.9620 -13.9603
L-96.6049 -13.9603
" />
<path d="M-96.6049 -13.9603
L-96.4620 -14.0317
" />
<path d="M-95.5335 -13.3889
L-95.6763 -13.4603
" />
<path d="M-95.6763 -13.4603
L-95.7477 -13.6032
" />
<path d="M-95.7477 -13.6032
L-95.7477 -14.8889
" />
<path d="M-95.3192 -13.2460
L-94.1763 -13.2460
" />
<path d="M-93.1763 -13.3889
L-93.1763 -14.8889
" />
<path d="M-93.1763 -13.4603
L-93.3192 -13.3889
" />
<path d="M-93.3192 -13.3889
L-93.6049 -13.3889
" />
<path d="M-93.6049 -13.3889
L-93.7477 -13.4603
" />
<path d="M-93.7477 -13.4603
L-93.8192 -13.5317
" />
<path d="M-93.8192 -13.5317
L-93.8906 -13.6746
" />
<path d="M-93.8906 -13.6746
L-93.8906 -14.1032
" />
<path d="M-93.8906 -14.1032
L-93.8192 -14.2460
" />
<path d="M-93.8192 -14.2460
L-93.7477 -14.3174
" />
<path d="M-93.7477 -14.3174
L-93.6049 -14.3889
" />
<path d="M-93.6049 -14.3889
L-93.3192 -14.3889
" />
<path d="M-93.3192 -14.3889
L-93.1763 -14.3174
" />
<path d="M-91.8906 -13.4603
L-92.0335 -13.3889
" />
<path d="M-92.0335 -13.3889
L-92.3192 -13.3889
" />
<path d="M-92.3192 -13.3889
L-92.4620 -13.4603
" />
<path d="M-92.4620 -13.4603
L-92.5335 -13.6032
" />
<path d="M-92.5335 -13.6032
L-92.5335 -14.1746
" />
<path d="M-92.5335 -14.1746
L-92.4620 -14.3174
" />
<path d="M-92.4620 -14.3174
L-92.3192 -14.3889
" />
<path d="M-92.3192 -14.3889
L-92.0335 -14.3889
" />
<path d="M-92.0335 -14.3889
L-91.8906 -14.3174
" />
<path d="M-91.8906 -14.3174
L-91.8192 -14.1746
" />
<path d="M-91.8192 -14.1746
L-91.8192 -14.0317
" />
<path d="M-91.8192 -14.0317
L-92.5335 -13.8889
" />
<path d="M-91.1763 -13.3889
L-91.1763 -14.3889
" />
<path d="M-91.1763 -14.2460
L-91.1049 -14.3174
" />
<path d="M-91.1049 -14.3174
L-90.9620 -14.3889
" />
<path d="M-90.9620 -14.3889
L-90.7477 -14.3889
" />
<path d="M-90.7477 -14.3889
L-90.6049 -14.3174
" />
<path d="M-90.6049 -14.3174
L-90.5335 -14.1746
" />
<path d="M-90.5335 -14.1746
L-90.5335 -13.3889
" />
<path d="M-90.5335 -14.1746
L-90.4620 -14.3174
" />
<path d="M-90.4620 -14.3174
L-90.3192 -14.3889
" />
<path d="M-90.3192 -14.3889
L-90.1049 -14.3889
" />
<path d="M-90.1049 -14.3889
L-89.9620 -14.3174
" />
<path d="M-89.9620 -14.3174
L-89.8906 -14.1746
" />
<path d="M-89.8906 -14.1746
L-89.8906 -13.3889
" />
<path d="M-88.9620 -13.3889
L-89.1049 -13.4603
" />
<path d="M-89.1049 -13.4603
L-89.1763 -13.5317
" />
<path d="M-89.1763 -13.5317
L-89.2477 -13.6746
" />
<path d="M-89.2477 -13.6746
L-89.2477 -14.1032
" />
<path d="M-89.2477 -14.1032
L-89.1763 -14.2460
" />
<path d="M-89.1763 -14.2460
L-89.1049 -14.3174
" />
<path d="M-89.1049 -14.3174
L-88.9620 -14.3889
" />
<path d="M-88.9620 -14.3889
L-88.7477 -14.3889
" />
<path d="M-88.7477 -14.3889
L-88.6049 -14.3174
" />
<path d="M-88.6049 -14.3174
L-88.5335 -14.2460
" />
<path d="M-88.5335 -14.2460
L-88.4620 -14.1032
" />
<path d="M-88.4620 -14.1032
L-88.4620 -13.6746
" />
<path d="M-88.4620 -13.6746
L-88.5335 -13.5317
" />
<path d="M-88.5335 -13.5317
L-88.6049 -13.4603
" />
<path d="M-88.6049 -13.4603
L-88.7477 -13.3889
" />
<path d="M-88.7477 -13.3889
L-88.9620 -13.3889
" />
<path d="M-87.8192 -13.5317
L-87.7477 -13.4603
" />
<path d="M-87.7477 -13.4603
L-87.8192 -13.3889
" />
<path d="M-87.8192 -13.3889
L-87.8906 -13.4603
" />
<path d="M-87.8906 -13.4603
L-87.8192 -13.5317
" />
<path d="M-87.8192 -13.5317
L-87.8192 -13.3889
" />
<path d="M-87.1049 -13.3889
L-87.1049 -14.8889
" />
<path d="M-86.9620 -13.9603
L-86.5335 -13.3889
" />
<path d="M-86.5335 -14.3889
L-87.1049 -13.8174
" />
<path d="M-85.8906 -13.3889
L-85.8906 -14.3889
" />
<path d="M-85.8906 -14.8889
L-85.9620 -14.8174
" />
<path d="M-85.9620 -14.8174
L-85.8906 -14.7460
" />
<path d="M-85.8906 -14.7460
L-85.8192 -14.8174
" />
<path d="M-85.8192 -14.8174
L-85.8906 -14.8889
" />
<path d="M-85.8906 -14.8889
L-85.8906 -14.7460
" />
<path d="M-84.5335 -13.4603
L-84.6763 -13.3889
" />
<path d="M-84.6763 -13.3889
L-84.9620 -13.3889
" />
<path d="M-84.9620 -13.3889
L-85.1049 -13.4603
" />
<path d="M-85.1049 -13.4603
L-85.1763 -13.5317
" />
<path d="M-85.1763 -13.5317
L-85.2477 -13.6746
" />
<path d="M-85.2477 -13.6746
L-85.2477 -14.1032
" />
<path d="M-85.2477 -14.1032
L-85.1763 -14.2460
" />
<path d="M-85.1763 -14.2460
L-85.1049 -14.3174
" />
<path d="M-85.1049 -14.3174
L-84.9620 -14.3889
" />
<path d="M-84.9620 -14.3889
L-84.6763 -14.3889
" />
<path d="M-84.6763 -14.3889
L-84.5335 -14.3174
" />
<path d="M-83.2477 -13.3889
L-83.2477 -14.1746
" />
<path d="M-83.2477 -14.1746
L-83.3192 -14.3174
" />
<path d="M-83.3192 -14.3174
L-83.4620 -14.3889
" />
<path d="M-83.4620 -14.3889
L-83.7477 -14.3889
" />
<path d="M-83.7477 -14.3889
L-83.8906 -14.3174
" />
<path d="M-83.2477 -13.4603
L-83.3906 -13.3889
" />
<path d="M-83.3906 -13.3889
L-83.7477 -13.3889
" />
<path d="M-83.7477 -13.3889
L-83.8906 -13.4603
" />
<path d="M-83.8906 -13.4603
L-83.9620 -13.6032
" />
<path d="M-83.9620 -13.6032
L-83.9620 -13.7460
" />
<path d="M-83.9620 -13.7460
L-83.8906 -13.8889
" />
<path d="M-83.8906 -13.8889
L-83.7477 -13.9603
" />
<path d="M-83.7477 -13.9603
L-83.3906 -13.9603
" />
<path d="M-83.3906 -13.9603
L-83.2477 -14.0317
" />
<path d="M-81.8906 -13.3889
L-81.8906 -14.8889
" />
<path d="M-81.8906 -13.4603
L-82.0335 -13.3889
" />
<path d="M-82.0335 -13.3889
L-82.3192 -13.3889
" />
<path d="M-82.3192 -13.3889
L-82.4620 -13.4603
" />
<path d="M-82.4620 -13.4603
L-82.5335 -13.5317
" />
<path d="M-82.5335 -13.5317
L-82.6049 -13.6746
" />
<path d="M-82.6049 -13.6746
L-82.6049 -14.1032
" />
<path d="M-82.6049 -14.1032
L-82.5335 -14.2460
" />
<path d="M-82.5335 -14.2460
L-82.4620 -14.3174
" />
<path d="M-82.4620 -14.3174
L-82.3192 -14.3889
" />
<path d="M-82.3192 -14.3889
L-82.0335 -14.3889
" />
<path d="M-82.0335 -14.3889
L-81.8906 -14.3174
" />
<path d="M-81.5335 -13.2460
L-80.3906 -13.2460
" />
<path d="M-80.0335 -14.3889
L-80.0335 -12.8889
" />
<path d="M-80.0335 -14.3174
L-79.8906 -14.3889
" />
<path d="M-79.8906 -14.3889
L-79.6049 -14.3889
" />
<path d="M-79.6049 -14.3889
L-79.4620 -14.3174
" />
<path d="M-79.4620 -14.3174
L-79.3906 -14.2460
" />
<path d="M-79.3906 -14.2460
L-79.3192 -14.1032
" />
<path d="M-79.3192 -14.1032
L-79.3192 -13.6746
" />
<path d="M-79.3192 -13.6746
L-79.3906 -13.5317
" />
<path d="M-79.3906 -13.5317
L-79.4620 -13.4603
" />
<path d="M-79.4620 -13.4603
L-79.6049 -13.3889
" />
<path d="M-79.6049 -13.3889
L-79.8906 -13.3889
" />
<path d="M-79.8906 -13.3889
L-80.0335 -13.4603
" />
<path d="M-78.0335 -13.4603
L-78.1763 -13.3889
" />
<path d="M-78.1763 -13.3889
L-78.4620 -13.3889
" />
<path d="M-78.4620 -13.3889
L-78.6049 -13.4603
" />
<path d="M-78.6049 -13.4603
L-78.6763 -13.5317
" />
<path d="M-78.6763 -13.5317
L-78.7477 -13.6746
" />
<path d="M-78.7477 -13.6746
L-78.7477 -14.1032
" />
<path d="M-78.7477 -14.1032
L-78.6763 -14.2460
" />
<path d="M-78.6763 -14.2460
L-78.6049 -14.3174
" />
<path d="M-78.6049 -14.3174
L-78.4620 -14.3889
" />
<path d="M-78.4620 -14.3889
L-78.1763 -14.3889
" />
<path d="M-78.1763 -14.3889
L-78.0335 -14.3174
" />
<path d="M-77.3906 -13.3889
L-77.3906 -14.8889
" />
<path d="M-77.3906 -14.3174
L-77.2477 -14.3889
" />
<path d="M-77.2477 -14.3889
L-76.9620 -14.3889
" />
<path d="M-76.9620 -14.3889
L-76.8192 -14.3174
" />
<path d="M-76.8192 -14.3174
L-76.7477 -14.2460
" />
<path d="M-76.7477 -14.2460
L-76.6763 -14.1032
" />
<path d="M-76.6763 -14.1032
L-76.6763 -13.6746
" />
<path d="M-76.6763 -13.6746
L-76.7477 -13.5317
" />
<path d="M-76.7477 -13.5317
L-76.8192 -13.4603
" />
<path d="M-76.8192 -13.4603
L-76.9620 -13.3889
" />
<path d="M-76.9620 -13.3889
L-77.2477 -13.3889
" />
<path d="M-77.2477 -13.3889
L-77.3906 -13.4603
" />
</g></g>
<g style="fill:none;
stroke:#000000; stroke-width:0.1500; stroke-opacity:1;
stroke-linecap:round; stroke-linejoin:round;">
<path d="M-109.7750 -18.2750
L-1.7750 -18.2750
" />
</g>
<g style="fill:none;
stroke:#000000; stroke-width:0.1500; stroke-opacity:1;
stroke-linecap:round; stroke-linejoin:round;">
<text x="-108.7750" y="-16.0250"
textLength="8.2214" font-size="2.0000" lengthAdjust="spacingAndGlyphs"
text-anchor="start" opacity="0" stroke-opacity="0">Sheet: </text>
<g class="stroked-text"><desc>Sheet: </desc>
<path d="M-108.3906 -16.1603
L-108.1763 -16.0889
" />
<path d="M-108.1763 -16.0889
L-107.8192 -16.0889
" />
<path d="M-107.8192 -16.0889
L-107.6763 -16.1603
" />
<path d="M-107.6763 -16.1603
L-107.6049 -16.2317
" />
<path d="M-107.6049 -16.2317
L-107.5335 -16.3746
" />
<path d="M-107.5335 -16.3746
L-107.5335 -16.5174
" />
<path d="M-107.5335 -16.5174
L-107.6049 -16.6603
" />
<path d="M-107.6049 -16.6603
L-107.6763 -16.7317
" />
<path d="M-107.6763 -16.7317
L-107.8192 -16.8032
" />
<path d="M-107.8192 -16.8032
L-108.1049 -16.8746
" />
<path d="M-108.1049 -16.8746
L-108.2477 -16.9460
" />
<path d="M-108.2477 -16.9460
L-108.3192 -17.0174
" />
<path d="M-108.3192 -17.0174
L-108.3906 -17.1603
" />
<path d="M-108.3906 -17.1603
L-108.3906 -17.3032
" />
<path d="M-108.3906 -17.3032
L-108.3192 -17.4460
" />
<path d="M-108.3192 -17.4460
L-108.2477 -17.5174
" />
<path d="M-108.2477 -17.5174
L-108.1049 -17.5889
" />
<path d="M-108.1049 -17.5889
L-107.7477 -17.5889
" />
<path d="M-107.7477 -17.5889
L-107.5335 -17.5174
" />
<path d="M-106.8906 -16.0889
L-106.8906 -17.5889
" />
<path d="M-106.2477 -16.0889
L-106.2477 -16.8746
" />
<path d="M-106.2477 -16.8746
L-106.3192 -17.0174
" />
<path d="M-106.3192 -17.0174
L-106.4620 -17.0889
" />
<path d="M-106.4620 -17.0889
L-106.6763 -17.0889
" />
<path d="M-106.6763 -17.0889
L-106.8192 -17.0174
" />
<path d="M-106.8192 -17.0174
L-106.8906 -16.9460
" />
<path d="M-104.9620 -16.1603
L-105.1049 -16.0889
" />
<path d="M-105.1049 -16.0889
L-105.3906 -16.0889
" />
<path d="M-105.3906 -16.0889
L-105.5335 -16.1603
" />
<path d="M-105.5335 -16.1603
L-105.6049 -16.3032
" />
<path d="M-105.6049 -16.3032
L-105.6049 -16.8746
" />
<path d="M-105.6049 -16.8746
L-105.5335 -17.0174
" />
<path d="M-105.5335 -17.0174
L-105.3906 -17.0889
" />
<path d="M-105.3906 -17.0889
L-105.1049 -17.0889
" />
<path d="M-105.1049 -17.0889
L-104.9620 -17.0174
" />
<path d="M-104.9620 -17.0174
L-104.8906 -16.8746
" />
<path d="M-104.8906 -16.8746
L-104.8906 -16.7317
" />
<path d="M-104.8906 -16.7317
L-105.6049 -16.5889
" />
<path d="M-103.6763 -16.1603
L-103.8192 -16.0889
" />
<path d="M-103.8192 -16.0889
L-104.1049 -16.0889
" />
<path d="M-104.1049 -16.0889
L-104.2477 -16.1603
" />
<path d="M-104.2477 -16.1603
L-104.3192 -16.3032
" />
<path d="M-104.3192 -16.3032
L-104.3192 -16.8746
" />
<path d="M-104.3192 -16.8746
L-104.2477 -17.0174
" />
<path d="M-104.2477 -17.0174
L-104.1049 -17.0889
" />
<path d="M-104.1049 -17.0889
L-103.8192 -17.0889
" />
<path d="M-103.8192 -17.0889
L-103.6763 -17.0174
" />
<path d="M-103.6763 -17.0174
L-103.6049 -16.8746
" />
<path d="M-103.6049 -16.8746
L-103.6049 -16.7317
" />
<path d="M-103.6049 -16.7317
L-104.3192 -16.5889
" />
<path d="M-103.1763 -17.0889
L-102.6049 -17.0889
" />
<path d="M-102.9620 -17.5889
L-102.9620 -16.3032
" />
<path d="M-102.9620 -16.3032
L-102.8906 -16.1603
" />
<path d="M-102.8906 -16.1603
L-102.7477 -16.0889
" />
<path d="M-102.7477 -16.0889
L-102.6049 -16.0889
" />
<path d="M-102.1049 -16.2317
L-102.0335 -16.1603
" />
<path d="M-102.0335 -16.1603
L-102.1049 -16.0889
" />
<path d="M-102.1049 -16.0889
L-102.1763 -16.1603
" />
<path d="M-102.1763 -16.1603
L-102.1049 -16.2317
" />
<path d="M-102.1049 -16.2317
L-102.1049 -16.0889
" />
<path d="M-102.1049 -17.0174
L-102.0335 -16.9460
" />
<path d="M-102.0335 -16.9460
L-102.1049 -16.8746
" />
<path d="M-102.1049 -16.8746
L-102.1763 -16.9460
" />
<path d="M-102.1763 -16.9460
L-102.1049 -17.0174
" />
<path d="M-102.1049 -17.0174
L-102.1049 -16.8746
" />
</g></g>
<g style="fill:none;
stroke:#000000; stroke-width:0.3000; stroke-opacity:1;
stroke-linecap:round; stroke-linejoin:round;">
<text x="-108.7750" y="-19.0250"
textLength="0.9000" font-size="2.0000" lengthAdjust="spacingAndGlyphs"
text-anchor="start" opacity="0" stroke-opacity="0"></text>
<g class="stroked-text"><desc></desc>
</g></g>
<g style="fill:none;
stroke:#000000; stroke-width:0.1500; stroke-opacity:1;
stroke-linecap:round; stroke-linejoin:round;">
<text x="-108.7750" y="-22.0250"
textLength="0.4500" font-size="2.0000" lengthAdjust="spacingAndGlyphs"
text-anchor="start" opacity="0" stroke-opacity="0"></text>
<g class="stroked-text"><desc></desc>
</g></g>
<g style="fill:none;
stroke:#000000; stroke-width:0.1500; stroke-opacity:1;
stroke-linecap:round; stroke-linejoin:round;">
<text x="-108.7750" y="-25.0250"
textLength="0.4500" font-size="2.0000" lengthAdjust="spacingAndGlyphs"
text-anchor="start" opacity="0" stroke-opacity="0"></text>
<g class="stroked-text"><desc></desc>
</g></g>
<g style="fill:none;
stroke:#000000; stroke-width:0.1500; stroke-opacity:1;
stroke-linecap:round; stroke-linejoin:round;">
<text x="-108.7750" y="-28.0250"
textLength="0.4500" font-size="2.0000" lengthAdjust="spacingAndGlyphs"
text-anchor="start" opacity="0" stroke-opacity="0"></text>
<g class="stroked-text"><desc></desc>
</g></g>
<g style="fill:none;
stroke:#000000; stroke-width:0.1500; stroke-opacity:1;
stroke-linecap:round; stroke-linejoin:round;">
<text x="-108.7750" y="-31.0250"
textLength="0.4500" font-size="2.0000" lengthAdjust="spacingAndGlyphs"
text-anchor="start" opacity="0" stroke-opacity="0"></text>
<g class="stroked-text"><desc></desc>
</g></g>
<g style="fill:none;
stroke:#000000; stroke-width:0.1500; stroke-opacity:1;
stroke-linecap:round; stroke-linejoin:round;">
<path d="M-89.7750 -8.2750
L-89.7750 -5.2750
" />
</g>
<g style="fill:none;
stroke:#000000; stroke-width:0.1500; stroke-opacity:1;
stroke-linecap:round; stroke-linejoin:round;">
<path d="M-25.7750 -8.2750
L-25.7750 -1.7750
" />
</g>
<g style="fill:none;
stroke:#000000; stroke-width:0.0800; stroke-opacity:1;
stroke-linecap:round; stroke-linejoin:round;">
<path d="M1.0750 1.0750
L1.0750 1.3073
" />
<path d="M1.0750 1.3073
L1.3331 1.3073
" />
<path d="M1.3331 1.3073
L1.3331 1.0750
" />
<path d="M1.3331 1.0750
L1.5911 1.0750
" />
<path d="M1.5911 1.0750
L1.8492 1.0750
" />
<path d="M1.8492 1.0750
L1.8492 1.3073
" />
<path d="M1.8492 1.3073
L1.5911 1.3073
" />
<path d="M1.5911 1.3073
L1.5911 1.5395
" />
<path d="M1.5911 1.5395
L1.8492 1.5395
" />
<path d="M1.8492 1.5395
L1.8492 1.7718
" />
<path d="M1.8492 1.7718
L1.5911 1.7718
" />
<path d="M1.5911 1.7718
L1.3331 1.7718
" />
<path d="M1.3331 1.7718
L1.3331 1.5395
" />
<path d="M1.3331 1.5395
L1.0750 1.5395
" />
<path d="M1.0750 1.5395
L1.0750 1.7718
" />
<path d="M1.0750 1.7718
L1.0750 2.0040
" />
<path d="M1.0750 2.0040
L1.3331 2.0040
" />
<path d="M1.3331 2.0040
L1.3331 2.2363
" />
<path d="M1.3331 2.2363
L1.0750 2.2363
" />
<path d="M1.0750 2.2363
L1.0750 2.4685
" />
<path d="M1.0750 2.4685
L1.0750 2.7008
" />
<path d="M1.0750 2.7008
L1.3331 2.7008
" />
<path d="M1.3331 2.7008
L1.3331 2.4685
" />
<path d="M1.3331 2.4685
L1.5911 2.4685
" />
<path d="M1.5911 2.4685
L1.5911 2.7008
" />
<path d="M1.5911 2.7008
L1.8492 2.7008
" />
<path d="M1.8492 2.7008
L1.8492 2.4685
" />
<path d="M1.8492 2.4685
L1.8492 2.2363
" />
<path d="M1.8492 2.2363
L1.5911 2.2363
" />
<path d="M1.5911 2.2363
L1.5911 2.0040
" />
<path d="M1.5911 2.0040
L1.8492 2.0040
" />
<path d="M1.8492 2.0040
L2.1073 2.0040
" />
<path d="M2.1073 2.0040
L2.3653 2.0040
" />
<path d="M2.3653 2.0040
L2.3653 2.2363
" />
<path d="M2.3653 2.2363
L2.1073 2.2363
" />
<path d="M2.1073 2.2363
L2.1073 2.4685
" />
<path d="M2.1073 2.4685
L2.1073 2.7008
" />
<path d="M2.1073 2.7008
L2.3653 2.7008
" />
<path d="M2.3653 2.7008
L2.3653 2.4685
" />
<path d="M2.3653 2.4685
L2.6234 2.4685
" />
<path d="M2.6234 2.4685
L2.6234 2.7008
" />
<path d="M2.6234 2.7008
L2.8815 2.7008
" />
<path d="M2.8815 2.7008
L2.8815 2.4685
" />
<path d="M2.8815 2.4685
L2.8815 2.2363
" />
<path d="M2.8815 2.2363
L2.6234 2.2363
" />
<path d="M2.6234 2.2363
L2.6234 2.0040
" />
<path d="M2.6234 2.0040
L2.8815 2.0040
" />
<path d="M2.8815 2.0040
L2.8815 1.7718
" />
<path d="M2.8815 1.7718
L2.8815 1.5395
" />
<path d="M2.8815 1.5395
L2.6234 1.5395
" />
<path d="M2.6234 1.5395
L2.6234 1.7718
" />
<path d="M2.6234 1.7718
L2.3653 1.7718
" />
<path d="M2.3653 1.7718
L2.1073 1.7718
" />
<path d="M2.1073 1.7718
L2.1073 1.5395
" />
<path d="M2.1073 1.5395
L2.3653 1.5395
" />
<path d="M2.3653 1.5395
L2.3653 1.3073
" />
<path d="M2.3653 1.3073
L2.1073 1.3073
" />
<path d="M2.1073 1.3073
L2.1073 1.0750
" />
<path d="M2.1073 1.0750
L2.3653 1.0750
" />
<path d="M2.3653 1.0750
L2.6234 1.0750
" />
<path d="M2.6234 1.0750
L2.6234 1.3073
" />
<path d="M2.6234 1.3073
L2.8815 1.3073
" />
<path d="M2.8815 1.3073
L2.8815 1.0750
" />
<path d="M2.8815 1.0750
L3.1395 1.0750
" />
<path d="M3.1395 1.0750
L3.3976 1.0750
" />
<path d="M3.3976 1.0750
L3.3976 1.3073
" />
<path d="M3.3976 1.3073
L3.1395 1.3073
" />
<path d="M3.1395 1.3073
L3.1395 1.5395
" />
<path d="M3.1395 1.5395
L3.1395 1.7718
" />
<path d="M3.1395 1.7718
L3.3976 1.7718
" />
<path d="M3.3976 1.7718
L3.3976 1.5395
" />
<path d="M3.3976 1.5395
L3.6556 1.5395
" />
<path d="M3.6556 1.5395
L3.6556 1.7718
" />
<path d="M3.6556 1.7718
L3.9137 1.7718
" />
<path d="M3.9137 1.7718
L3.9137 1.5395
" />
<path d="M3.9137 1.5395
L3.9137 1.3073
" />
<path d="M3.9137 1.3073
L3.6556 1.3073
" />
<path d="M3.6556 1.3073
L3.6556 1.0750
" />
<path d="M3.6556 1.0750
L3.9137 1.0750
" />
<path d="M3.9137 1.0750
L4.1718 1.0750
" />
<path d="M4.1718 1.0750
L4.1718 1.3073
" />
<path d="M4.1718 1.3073
L4.4298 1.3073
" />
<path d="M4.4298 1.3073
L4.4298 1.0750
" />
<path d="M4.4298 1.0750
L4.6879 1.0750
" />
<path d="M4.6879 1.0750
L4.9460 1.0750
" />
<path d="M4.9460 1.0750
L4.9460 1.3073
" />
<path d="M4.9460 1.3073
L4.6879 1.3073
" />
<path d="M4.6879 1.3073
L4.6879 1.5395
" />
<path d="M4.6879 1.5395
L4.9460 1.5395
" />
<path d="M4.9460 1.5395
L4.9460 1.7718
" />
<path d="M4.9460 1.7718
L4.6879 1.7718
" />
<path d="M4.6879 1.7718
L4.4298 1.7718
" />
<path d="M4.4298 1.7718
L4.4298 1.5395
" />
<path d="M4.4298 1.5395
L4.1718 1.5395
" />
<path d="M4.1718 1.5395
L4.1718 1.7718
" />
<path d="M4.1718 1.7718
L4.1718 2.0040
" />
<path d="M4.1718 2.0040
L4.1718 2.2363
" />
<path d="M4.1718 2.2363
L4.4298 2.2363
" />
<path d="M4.4298 2.2363
L4.4298 2.0040
" />
<path d="M4.4298 2.0040
L4.6879 2.0040
" />
<path d="M4.6879 2.0040
L4.9460 2.0040
" />
<path d="M4.9460 2.0040
L4.9460 2.2363
" />
<path d="M4.9460 2.2363
L4.6879 2.2363
" />
<path d="M4.6879 2.2363
L4.6879 2.4685
" />
<path d="M4.6879 2.4685
L4.9460 2.4685
" />
<path d="M4.9460 2.4685
L4.9460 2.7008
" />
<path d="M4.9460 2.7008
L4.6879 2.7008
" />
<path d="M4.6879 2.7008
L4.4298 2.7008
" />
<path d="M4.4298 2.7008
L4.4298 2.4685
" />
<path d="M4.4298 2.4685
L4.1718 2.4685
" />
<path d="M4.1718 2.4685
L4.1718 2.7008
" />
<path d="M4.1718 2.7008
L3.9137 2.7008
" />
<path d="M3.9137 2.7008
L3.6556 2.7008
" />
<path d="M3.6556 2.7008
L3.6556 2.4685
" />
<path d="M3.6556 2.4685
L3.9137 2.4685
" />
<path d="M3.9137 2.4685
L3.9137 2.2363
" />
<path d="M3.9137 2.2363
L3.9137 2.0040
" />
<path d="M3.9137 2.0040
L3.6556 2.0040
" />
<path d="M3.6556 2.0040
L3.6556 2.2363
" />
<path d="M3.6556 2.2363
L3.3976 2.2363
" />
<path d="M3.3976 2.2363
L3.3976 2.0040
" />
<path d="M3.3976 2.0040
L3.1395 2.0040
" />
<path d="M3.1395 2.0040
L3.1395 2.2363
" />
<path d="M3.1395 2.2363
L3.1395 2.4685
" />
<path d="M3.1395 2.4685
L3.3976 2.4685
" />
<path d="M3.3976 2.4685
L3.3976 2.7008
" />
<path d="M3.3976 2.7008
L3.1395 2.7008
" />
<path d="M3.1395 2.7008
L3.1395 2.9331
" />
<path d="M3.1395 2.9331
L3.3976 2.9331
" />
<path d="M3.3976 2.9331
L3.3976 3.1653
" />
<path d="M3.3976 3.1653
L3.1395 3.1653
" />
<path d="M3.1395 3.1653
L3.1395 3.3976
" />
<path d="M3.1395 3.3976
L3.1395 3.6298
" />
<path d="M3.1395 3.6298
L3.3976 3.6298
" />
<path d="M3.3976 3.6298
L3.3976 3.3976
" />
<path d="M3.3976 3.3976
L3.6556 3.3976
" />
<path d="M3.6556 3.3976
L3.6556 3.6298
" />
<path d="M3.6556 3.6298
L3.9137 3.6298
" />
<path d="M3.9137 3.6298
L3.9137 3.3976
" />
<path d="M3.9137 3.3976
L3.9137 3.1653
" />
<path d="M3.9137 3.1653
L3.6556 3.1653
" />
<path d="M3.6556 3.1653
L3.6556 2.9331
" />
<path d="M3.6556 2.9331
L3.9137 2.9331
" />
<path d="M3.9137 2.9331
L4.1718 2.9331
" />
<path d="M4.1718 2.9331
L4.1718 3.1653
" />
<path d="M4.1718 3.1653
L4.4298 3.1653
" />
<path d="M4.4298 3.1653
L4.4298 2.9331
" />
<path d="M4.4298 2.9331
L4.6879 2.9331
" />
<path d="M4.6879 2.9331
L4.9460 2.9331
" />
<path d="M4.9460 2.9331
L4.9460 3.1653
" />
<path d="M4.9460 3.1653
L4.6879 3.1653
" />
<path d="M4.6879 3.1653
L4.6879 3.3976
" />
<path d="M4.6879 3.3976
L4.9460 3.3976
" />
<path d="M4.9460 3.3976
L4.9460 3.6298
" />
<path d="M4.9460 3.6298
L4.6879 3.6298
" />
<path d="M4.6879 3.6298
L4.4298 3.6298
" />
<path d="M4.4298 3.6298
L4.4298 3.3976
" />
<path d="M4.4298 3.3976
L4.1718 3.3976
" />
<path d="M4.1718 3.3976
L4.1718 3.6298
" />
<path d="M4.1718 3.6298
L4.1718 3.8621
" />
<path d="M4.1718 3.8621
L4.1718 4.0944
" />
<path d="M4.1718 4.0944
L4.4298 4.0944
" />
<path d="M4.4298 4.0944
L4.4298 3.8621
" />
<path d="M4.4298 3.8621
L4.6879 3.8621
" />
<path d="M4.6879 3.8621
L4.9460 3.8621
" />
<path d="M4.9460 3.8621
L4.9460 4.0944
" />
<path d="M4.9460 4.0944
L4.6879 4.0944
" />
<path d="M4.6879 4.0944
L4.6879 4.3266
" />
<path d="M4.6879 4.3266
L4.9460 4.3266
" />
<path d="M4.9460 4.3266
L4.9460 4.5589
" />
<path d="M4.9460 4.5589
L4.6879 4.5589
" />
<path d="M4.6879 4.5589
L4.4298 4.5589
" />
<path d="M4.4298 4.5589
L4.4298 4.3266
" />
<path d="M4.4298 4.3266
L4.1718 4.3266
" />
<path d="M4.1718 4.3266
L4.1718 4.5589
" />
<path d="M4.1718 4.5589
L3.9137 4.5589
" />
<path d="M3.9137 4.5589
L3.6556 4.5589
" />
<path d="M3.6556 4.5589
L3.6556 4.3266
" />
<path d="M3.6556 4.3266
L3.9137 4.3266
" />
<path d="M3.9137 4.3266
L3.9137 4.0944
" />
<path d="M3.9137 4.0944
L3.9137 3.8621
" />
<path d="M3.9137 3.8621
L3.6556 3.8621
" />
<path d="M3.6556 3.8621
L3.6556 4.0944
" />
<path d="M3.6556 4.0944
L3.3976 4.0944
" />
<path d="M3.3976 4.0944
L3.3976 3.8621
" />
<path d="M3.3976 3.8621
L3.1395 3.8621
" />
<path d="M3.1395 3.8621
L3.1395 4.0944
" />
<path d="M3.1395 4.0944
L3.1395 4.3266
" />
<path d="M3.1395 4.3266
L3.3976 4.3266
" />
<path d="M3.3976 4.3266
L3.3976 4.5589
" />
<path d="M3.3976 4.5589
L3.1395 4.5589
" />
<path d="M3.1395 4.5589
L2.8815 4.5589
" />
<path d="M2.8815 4.5589
L2.8815 4.3266
" />
<path d="M2.8815 4.3266
L2.6234 4.3266
" />
<path d="M2.6234 4.3266
L2.6234 4.5589
" />
<path d="M2.6234 4.5589
L2.3653 4.5589
" />
<path d="M2.3653 4.5589
L2.1073 4.5589
" />
<path d="M2.1073 4.5589
L2.1073 4.3266
" />
<path d="M2.1073 4.3266
L2.3653 4.3266
" />
<path d="M2.3653 4.3266
L2.3653 4.0944
" />
<path d="M2.3653 4.0944
L2.1073 4.0944
" />
<path d="M2.1073 4.0944
L2.1073 3.8621
" />
<path d="M2.1073 3.8621
L2.3653 3.8621
" />
<path d="M2.3653 3.8621
L2.6234 3.8621
" />
<path d="M2.6234 3.8621
L2.6234 4.0944
" />
<path d="M2.6234 4.0944
L2.8815 4.0944
" />
<path d="M2.8815 4.0944
L2.8815 3.8621
" />
<path d="M2.8815 3.8621
L2.8815 3.6298
" />
<path d="M2.8815 3.6298
L2.6234 3.6298
" />
<path d="M2.6234 3.6298
L2.6234 3.3976
" />
<path d="M2.6234 3.3976
L2.8815 3.3976
" />
<path d="M2.8815 3.3976
L2.8815 3.1653
" />
<path d="M2.8815 3.1653
L2.8815 2.9331
" />
<path d="M2.8815 2.9331
L2.6234 2.9331
" />
<path d="M2.6234 2.9331
L2.6234 3.1653
" />
<path d="M2.6234 3.1653
L2.3653 3.1653
" />
<path d="M2.3653 3.1653
L2.3653 2.9331
" />
<path d="M2.3653 2.9331
L2.1073 2.9331
" />
<path d="M2.1073 2.9331
L2.1073 3.1653
" />
<path d="M2.1073 3.1653
L2.1073 3.3976
" />
<path d="M2.1073 3.3976
L2.3653 3.3976
" />
<path d="M2.3653 3.3976
L2.3653 3.6298
" />
<path d="M2.3653 3.6298
L2.1073 3.6298
" />
<path d="M2.1073 3.6298
L1.8492 3.6298
" />
<path d="M1.8492 3.6298
L1.5911 3.6298
" />
<path d="M1.5911 3.6298
L1.5911 3.3976
" />
<path d="M1.5911 3.3976
L1.8492 3.3976
" />
<path d="M1.8492 3.3976
L1.8492 3.1653
" />
<path d="M1.8492 3.1653
L1.8492 2.9331
" />
<path d="M1.8492 2.9331
L1.5911 2.9331
" />
<path d="M1.5911 2.9331
L1.5911 3.1653
" />
<path d="M1.5911 3.1653
L1.3331 3.1653
" />
<path d="M1.3331 3.1653
L1.3331 2.9331
" />
<path d="M1.3331 2.9331
L1.0750 2.9331
" />
<path d="M1.0750 2.9331
L1.0750 3.1653
" />
<path d="M1.0750 3.1653
L1.0750 3.3976
" />
<path d="M1.0750 3.3976
L1.3331 3.3976
" />
<path d="M1.3331 3.3976
L1.3331 3.6298
" />
<path d="M1.3331 3.6298
L1.0750 3.6298
" />
<path d="M1.0750 3.6298
L1.0750 3.8621
" />
<path d="M1.0750 3.8621
L1.0750 4.0944
" />
<path d="M1.0750 4.0944
L1.3331 4.0944
" />
<path d="M1.3331 4.0944
L1.3331 3.8621
" />
<path d="M1.3331 3.8621
L1.5911 3.8621
" />
<path d="M1.5911 3.8621
L1.8492 3.8621
" />
<path d="M1.8492 3.8621
L1.8492 4.0944
" />
<path d="M1.8492 4.0944
L1.5911 4.0944
" />
<path d="M1.5911 4.0944
L1.5911 4.3266
" />
<path d="M1.5911 4.3266
L1.8492 4.3266
" />
<path d="M1.8492 4.3266
L1.8492 4.5589
" />
<path d="M1.8492 4.5589
L1.5911 4.5589
" />
<path d="M1.5911 4.5589
L1.3331 4.5589
" />
<path d="M1.3331 4.5589
L1.3331 4.3266
" />
<path d="M1.3331 4.3266
L1.0750 4.3266
" />
<path d="M1.0750 4.3266
L1.0750 4.5589
" />
<path d="M1.0750 4.5589
L1.0750 4.7911
" />
<path d="M1.0750 4.7911
L1.3331 4.7911
" />
<path d="M1.3331 4.7911
L1.3331 5.0234
" />
<path d="M1.3331 5.0234
L1.0750 5.0234
" />
<path d="M1.0750 5.0234
L1.0750 5.2556
" />
<path d="M1.0750 5.2556
L1.0750 5.4879
" />
<path d="M1.0750 5.4879
L1.3331 5.4879
" />
<path d="M1.3331 5.4879
L1.3331 5.2556
" />
<path d="M1.3331 5.2556
L1.5911 5.2556
" />
<path d="M1.5911 5.2556
L1.5911 5.4879
" />
<path d="M1.5911 5.4879
L1.8492 5.4879
" />
<path d="M1.8492 5.4879
L1.8492 5.2556
" />
<path d="M1.8492 5.2556
L1.8492 5.0234
" />
<path d="M1.8492 5.0234
L1.5911 5.0234
" />
<path d="M1.5911 5.0234
L1.5911 4.7911
" />
<path d="M1.5911 4.7911
L1.8492 4.7911
" />
<path d="M1.8492 4.7911
L2.1073 4.7911
" />
<path d="M2.1073 4.7911
L2.1073 5.0234
" />
<path d="M2.1073 5.0234
L2.3653 5.0234
" />
<path d="M2.3653 5.0234
L2.3653 4.7911
" />
<path d="M2.3653 4.7911
L2.6234 4.7911
" />
<path d="M2.6234 4.7911
L2.8815 4.7911
" />
<path d="M2.8815 4.7911
L2.8815 5.0234
" />
<path d="M2.8815 5.0234
L2.6234 5.0234
" />
<path d="M2.6234 5.0234
L2.6234 5.2556
" />
<path d="M2.6234 5.2556
L2.8815 5.2556
" />
<path d="M2.8815 5.2556
L2.8815 5.4879
" />
<path d="M2.8815 5.4879
L2.6234 5.4879
" />
<path d="M2.6234 5.4879
L2.3653 5.4879
" />
<path d="M2.3653 5.4879
L2.3653 5.2556
" />
<path d="M2.3653 5.2556
L2.1073 5.2556
" />
<path d="M2.1073 5.2556
L2.1073 5.4879
" />
<path d="M2.1073 5.4879
L2.1073 5.7202
" />
<path d="M2.1073 5.7202
L2.1073 5.9524
" />
<path d="M2.1073 5.9524
L2.3653 5.9524
" />
<path d="M2.3653 5.9524
L2.3653 5.7202
" />
<path d="M2.3653 5.7202
L2.6234 5.7202
" />
<path d="M2.6234 5.7202
L2.8815 5.7202
" />
<path d="M2.8815 5.7202
L2.8815 5.9524
" />
<path d="M2.8815 5.9524
L2.6234 5.9524
" />
<path d="M2.6234 5.9524
L2.6234 6.1847
" />
<path d="M2.6234 6.1847
L2.8815 6.1847
" />
<path d="M2.8815 6.1847
L2.8815 6.4169
" />
<path d="M2.8815 6.4169
L2.6234 6.4169
" />
<path d="M2.6234 6.4169
L2.3653 6.4169
" />
<path d="M2.3653 6.4169
L2.3653 6.1847
" />
<path d="M2.3653 6.1847
L2.1073 6.1847
" />
<path d="M2.1073 6.1847
L2.1073 6.4169
" />
<path d="M2.1073 6.4169
L1.8492 6.4169
" />
<path d="M1.8492 6.4169
L1.5911 6.4169
" />
<path d="M1.5911 6.4169
L1.5911 6.1847
" />
<path d="M1.5911 6.1847
L1.8492 6.1847
" />
<path d="M1.8492 6.1847
L1.8492 5.9524
" />
<path d="M1.8492 5.9524
L1.8492 5.7202
" />
<path d="M1.8492 5.7202
L1.5911 5.7202
" />
<path d="M1.5911 5.7202
L1.5911 5.9524
" />
<path d="M1.5911 5.9524
L1.3331 5.9524
" />
<path d="M1.3331 5.9524
L1.3331 5.7202
" />
<path d="M1.3331 5.7202
L1.0750 5.7202
" />
<path d="M1.0750 5.7202
L1.0750 5.9524
" />
<path d="M1.0750 5.9524
L1.0750 6.1847
" />
<path d="M1.0750 6.1847
L1.3331 6.1847
" />
<path d="M1.3331 6.1847
L1.3331 6.4169
" />
<path d="M1.3331 6.4169
L1.0750 6.4169
" />
<path d="M1.0750 6.4169
L1.0750 6.6492
" />
<path d="M1.0750 6.6492
L1.0750 6.8815
" />
<path d="M1.0750 6.8815
L1.3331 6.8815
" />
<path d="M1.3331 6.8815
L1.3331 6.6492
" />
<path d="M1.3331 6.6492
L1.5911 6.6492
" />
<path d="M1.5911 6.6492
L1.8492 6.6492
" />
<path d="M1.8492 6.6492
L1.8492 6.8815
" />
<path d="M1.8492 6.8815
L1.5911 6.8815
" />
<path d="M1.5911 6.8815
L1.5911 7.1137
" />
<path d="M1.5911 7.1137
L1.8492 7.1137
" />
<path d="M1.8492 7.1137
L1.8492 7.3460
" />
<path d="M1.8492 7.3460
L1.5911 7.3460
" />
<path d="M1.5911 7.3460
L1.3331 7.3460
" />
<path d="M1.3331 7.3460
L1.3331 7.1137
" />
<path d="M1.3331 7.1137
L1.0750 7.1137
" />
<path d="M1.0750 7.1137
L1.0750 7.3460
" />
<path d="M1.0750 7.3460
L1.0750 7.5782
" />
<path d="M1.0750 7.5782
L1.3331 7.5782
" />
<path d="M1.3331 7.5782
L1.3331 7.8105
" />
<path d="M1.3331 7.8105
L1.0750 7.8105
" />
<path d="M1.0750 7.8105
L1.0750 8.0427
" />
<path d="M1.0750 8.0427
L1.0750 8.2750
" />
<path d="M1.0750 8.2750
L1.3331 8.2750
" />
<path d="M1.3331 8.2750
L1.3331 8.0427
" />
<path d="M1.3331 8.0427
L1.5911 8.0427
" />
<path d="M1.5911 8.0427
L1.5911 8.2750
" />
<path d="M1.5911 8.2750
L1.8492 8.2750
" />
<path d="M1.8492 8.2750
L1.8492 8.0427
" />
<path d="M1.8492 8.0427
L1.8492 7.8105
" />
<path d="M1.8492 7.8105
L1.5911 7.8105
" />
<path d="M1.5911 7.8105
L1.5911 7.5782
" />
<path d="M1.5911 7.5782
L1.8492 7.5782
" />
<path d="M1.8492 7.5782
L2.1073 7.5782
" />
<path d="M2.1073 7.5782
L2.3653 7.5782
" />
<path d="M2.3653 7.5782
L2.3653 7.8105
" />
<path d="M2.3653 7.8105
L2.1073 7.8105
" />
<path d="M2.1073 7.8105
L2.1073 8.0427
" />
<path d="M2.1073 8.0427
L2.1073 8.2750
" />
<path d="M2.1073 8.2750
L2.3653 8.2750
" />
<path d="M2.3653 8.2750
L2.3653 8.0427
" />
<path d="M2.3653 8.0427
L2.6234 8.0427
" />
<path d="M2.6234 8.0427
L2.6234 8.2750
" />
<path d="M2.6234 8.2750
L2.8815 8.2750
" />
<path d="M2.8815 8.2750
L2.8815 8.0427
" />
<path d="M2.8815 8.0427
L2.8815 7.8105
" />
<path d="M2.8815 7.8105
L2.6234 7.8105
" />
<path d="M2.6234 7.8105
L2.6234 7.5782
" />
<path d="M2.6234 7.5782
L2.8815 7.5782
" />
<path d="M2.8815 7.5782
L2.8815 7.3460
" />
<path d="M2.8815 7.3460
L2.8815 7.1137
" />
<path d="M2.8815 7.1137
L2.6234 7.1137
" />
<path d="M2.6234 7.1137
L2.6234 7.3460
" />
<path d="M2.6234 7.3460
L2.3653 7.3460
" />
<path d="M2.3653 7.3460
L2.1073 7.3460
" />
<path d="M2.1073 7.3460
L2.1073 7.1137
" />
<path d="M2.1073 7.1137
L2.3653 7.1137
" />
<path d="M2.3653 7.1137
L2.3653 6.8815
" />
<path d="M2.3653 6.8815
L2.1073 6.8815
" />
<path d="M2.1073 6.8815
L2.1073 6.6492
" />
<path d="M2.1073 6.6492
L2.3653 6.6492
" />
<path d="M2.3653 6.6492
L2.6234 6.6492
" />
<path d="M2.6234 6.6492
L2.6234 6.8815
" />
<path d="M2.6234 6.8815
L2.8815 6.8815
" />
<path d="M2.8815 6.8815
L2.8815 6.6492
" />
<path d="M2.8815 6.6492
L3.1395 6.6492
" />
<path d="M3.1395 6.6492
L3.1395 6.8815
" />
<path d="M3.1395 6.8815
L3.3976 6.8815
" />
<path d="M3.3976 6.8815
L3.3976 6.6492
" />
<path d="M3.3976 6.6492
L3.6556 6.6492
" />
<path d="M3.6556 6.6492
L3.9137 6.6492
" />
<path d="M3.9137 6.6492
L3.9137 6.8815
" />
<path d="M3.9137 6.8815
L3.6556 6.8815
" />
<path d="M3.6556 6.8815
L3.6556 7.1137
" />
<path d="M3.6556 7.1137
L3.9137 7.1137
" />
<path d="M3.9137 7.1137
L3.9137 7.3460
" />
<path d="M3.9137 7.3460
L3.6556 7.3460
" />
<path d="M3.6556 7.3460
L3.3976 7.3460
" />
<path d="M3.3976 7.3460
L3.3976 7.1137
" />
<path d="M3.3976 7.1137
L3.1395 7.1137
" />
<path d="M3.1395 7.1137
L3.1395 7.3460
" />
<path d="M3.1395 7.3460
L3.1395 7.5782
" />
<path d="M3.1395 7.5782
L3.3976 7.5782
" />
<path d="M3.3976 7.5782
L3.3976 7.8105
" />
<path d="M3.3976 7.8105
L3.1395 7.8105
" />
<path d="M3.1395 7.8105
L3.1395 8.0427
" />
<path d="M3.1395 8.0427
L3.1395 8.2750
" />
<path d="M3.1395 8.2750
L3.3976 8.2750
" />
<path d="M3.3976 8.2750
L3.3976 8.0427
" />
<path d="M3.3976 8.0427
L3.6556 8.0427
" />
<path d="M3.6556 8.0427
L3.6556 8.2750
" />
<path d="M3.6556 8.2750
L3.9137 8.2750
" />
<path d="M3.9137 8.2750
L3.9137 8.0427
" />
<path d="M3.9137 8.0427
L3.9137 7.8105
" />
<path d="M3.9137 7.8105
L3.6556 7.8105
" />
<path d="M3.6556 7.8105
L3.6556 7.5782
" />
<path d="M3.6556 7.5782
L3.9137 7.5782
" />
<path d="M3.9137 7.5782
L4.1718 7.5782
" />
<path d="M4.1718 7.5782
L4.4298 7.5782
" />
<path d="M4.4298 7.5782
L4.4298 7.8105
" />
<path d="M4.4298 7.8105
L4.1718 7.8105
" />
<path d="M4.1718 7.8105
L4.1718 8.0427
" />
<path d="M4.1718 8.0427
L4.1718 8.2750
" />
<path d="M4.1718 8.2750
L4.4298 8.2750
" />
<path d="M4.4298 8.2750
L4.4298 8.0427
" />
<path d="M4.4298 8.0427
L4.6879 8.0427
" />
<path d="M4.6879 8.0427
L4.6879 8.2750
" />
<path d="M4.6879 8.2750
L4.9460 8.2750
" />
<path d="M4.9460 8.2750
L4.9460 8.0427
" />
<path d="M4.9460 8.0427
L4.9460 7.8105
" />
<path d="M4.9460 7.8105
L4.6879 7.8105
" />
<path d="M4.6879 7.8105
L4.6879 7.5782
" />
<path d="M4.6879 7.5782
L4.9460 7.5782
" />
<path d="M4.9460 7.5782
L4.9460 7.3460
" />
<path d="M4.9460 7.3460
L4.9460 7.1137
" />
<path d="M4.9460 7.1137
L4.6879 7.1137
" />
<path d="M4.6879 7.1137
L4.6879 7.3460
" />
<path d="M4.6879 7.3460
L4.4298 7.3460
" />
<path d="M4.4298 7.3460
L4.1718 7.3460
" />
<path d="M4.1718 7.3460
L4.1718 7.1137
" />
<path d="M4.1718 7.1137
L4.4298 7.1137
" />
<path d="M4.4298 7.1137
L4.4298 6.8815
" />
<path d="M4.4298 6.8815
L4.1718 6.8815
" />
<path d="M4.1718 6.8815
L4.1718 6.6492
" />
<path d="M4.1718 6.6492
L4.4298 6.6492
" />
<path d="M4.4298 6.6492
L4.6879 6.6492
" />
<path d="M4.6879 6.6492
L4.6879 6.8815
" />
<path d="M4.6879 6.8815
L4.9460 6.8815
" />
<path d="M4.9460 6.8815
L4.9460 6.6492
" />
<path d="M4.9460 6.6492
L4.9460 6.4169
" />
<path d="M4.9460 6.4169
L4.6879 6.4169
" />
<path d="M4.6879 6.4169
L4.6879 6.1847
" />
<path d="M4.6879 6.1847
L4.9460 6.1847
" />
<path d="M4.9460 6.1847
L4.9460 5.9524
" />
<path d="M4.9460 5.9524
L4.9460 5.7202
" />
<path d="M4.9460 5.7202
L4.6879 5.7202
" />
<path d="M4.6879 5.7202
L4.6879 5.9524
" />
<path d="M4.6879 5.9524
L4.4298 5.9524
" />
<path d="M4.4298 5.9524
L4.4298 5.7202
" />
<path d="M4.4298 5.7202
L4.1718 5.7202
" />
<path d="M4.1718 5.7202
L4.1718 5.9524
" />
<path d="M4.1718 5.9524
L4.1718 6.1847
" />
<path d="M4.1718 6.1847
L4.4298 6.1847
" />
<path d="M4.4298 6.1847
L4.4298 6.4169
" />
<path d="M4.4298 6.4169
L4.1718 6.4169
" />
<path d="M4.1718 6.4169
L3.9137 6.4169
" />
<path d="M3.9137 6.4169
L3.9137 6.1847
" />
<path d="M3.9137 6.1847
L3.6556 6.1847
" />
<path d="M3.6556 6.1847
L3.6556 6.4169
" />
<path d="M3.6556 6.4169
L3.3976 6.4169
" />
<path d="M3.3976 6.4169
L3.1395 6.4169
" />
<path d="M3.1395 6.4169
L3.1395 6.1847
" />
<path d="M3.1395 6.1847
L3.3976 6.1847
" />
<path d="M3.3976 6.1847
L3.3976 5.9524
" />
<path d="M3.3976 5.9524
L3.1395 5.9524
" />
<path d="M3.1395 5.9524
L3.1395 5.7202
" />
<path d="M3.1395 5.7202
L3.3976 5.7202
" />
<path d="M3.3976 5.7202
L3.6556 5.7202
" />
<path d="M3.6556 5.7202
L3.6556 5.9524
" />
<path d="M3.6556 5.9524
L3.9137 5.9524
" />
<path d="M3.9137 5.9524
L3.9137 5.7202
" />
<path d="M3.9137 5.7202
L3.9137 5.4879
" />
<path d="M3.9137 5.4879
L3.9137 5.2556
" />
<path d="M3.9137 5.2556
L3.6556 5.2556
" />
<path d="M3.6556 5.2556
L3.6556 5.4879
" />
<path d="M3.6556 5.4879
L3.3976 5.4879
" />
<path d="M3.3976 5.4879
L3.1395 5.4879
" />
<path d="M3.1395 5.4879
L3.1395 5.2556
" />
<path d="M3.1395 5.2556
L3.3976 5.2556
" />
<path d="M3.3976 5.2556
L3.3976 5.0234
" />
<path d="M3.3976 5.0234
L3.1395 5.0234
" />
<path d="M3.1395 5.0234
L3.1395 4.7911
" />
<path d="M3.1395 4.7911
L3.3976 4.7911
" />
<path d="M3.3976 4.7911
L3.6556 4.7911
" />
<path d="M3.6556 4.7911
L3.6556 5.0234
" />
<path d="M3.6556 5.0234
L3.9137 5.0234
" />
<path d="M3.9137 5.0234
L3.9137 4.7911
" />
<path d="M3.9137 4.7911
L4.1718 4.7911
" />
<path d="M4.1718 4.7911
L4.4298 4.7911
" />
<path d="M4.4298 4.7911
L4.4298 5.0234
" />
<path d="M4.4298 5.0234
L4.1718 5.0234
" />
<path d="M4.1718 5.0234
L4.1718 5.2556
" />
<path d="M4.1718 5.2556
L4.1718 5.4879
" />
<path d="M4.1718 5.4879
L4.4298 5.4879
" />
<path d="M4.4298 5.4879
L4.4298 5.2556
" />
<path d="M4.4298 5.2556
L4.6879 5.2556
" />
<path d="M4.6879 5.2556
L4.6879 5.4879
" />
<path d="M4.6879 5.4879
L4.9460 5.4879
" />
<path d="M4.9460 5.4879
L4.9460 5.2556
" />
<path d="M4.9460 5.2556
L4.9460 5.0234
" />
<path d="M4.9460 5.0234
L4.6879 5.0234
" />
<path d="M4.6879 5.0234
L4.6879 4.7911
" />
<path d="M4.6879 4.7911
L4.9460 4.7911
" />
<path d="M4.9460 4.7911
L5.2040 4.7911
" />
<path d="M5.2040 4.7911
L5.4621 4.7911
" />
<path d="M5.4621 4.7911
L5.4621 5.0234
" />
<path d="M5.4621 5.0234
L5.2040 5.0234
" />
<path d="M5.2040 5.0234
L5.2040 5.2556
" />
<path d="M5.2040 5.2556
L5.2040 5.4879
" />
<path d="M5.2040 5.4879
L5.4621 5.4879
" />
<path d="M5.4621 5.4879
L5.4621 5.2556
" />
<path d="M5.4621 5.2556
L5.7202 5.2556
" />
<path d="M5.7202 5.2556
L5.7202 5.4879
" />
<path d="M5.7202 5.4879
L5.9782 5.4879
" />
<path d="M5.9782 5.4879
L5.9782 5.2556
" />
<path d="M5.9782 5.2556
L5.9782 5.0234
" />
<path d="M5.9782 5.0234
L5.7202 5.0234
" />
<path d="M5.7202 5.0234
L5.7202 4.7911
" />
<path d="M5.7202 4.7911
L5.9782 4.7911
" />
<path d="M5.9782 4.7911
L6.2363 4.7911
" />
<path d="M6.2363 4.7911
L6.2363 5.0234
" />
<path d="M6.2363 5.0234
L6.4944 5.0234
" />
<path d="M6.4944 5.0234
L6.4944 4.7911
" />
<path d="M6.4944 4.7911
L6.7524 4.7911
" />
<path d="M6.7524 4.7911
L7.0105 4.7911
" />
<path d="M7.0105 4.7911
L7.0105 5.0234
" />
<path d="M7.0105 5.0234
L6.7524 5.0234
" />
<path d="M6.7524 5.0234
L6.7524 5.2556
" />
<path d="M6.7524 5.2556
L7.0105 5.2556
" />
<path d="M7.0105 5.2556
L7.0105 5.4879
" />
<path d="M7.0105 5.4879
L6.7524 5.4879
" />
<path d="M6.7524 5.4879
L6.4944 5.4879
" />
<path d="M6.4944 5.4879
L6.4944 5.2556
" />
<path d="M6.4944 5.2556
L6.2363 5.2556
" />
<path d="M6.2363 5.2556
L6.2363 5.4879
" />
<path d="M6.2363 5.4879
L6.2363 5.7202
" />
<path d="M6.2363 5.7202
L6.2363 5.9524
" />
<path d="M6.2363 5.9524
L6.4944 5.9524
" />
<path d="M6.4944 5.9524
L6.4944 5.7202
" />
<path d="M6.4944 5.7202
L6.7524 5.7202
" />
<path d="M6.7524 5.7202
L7.0105 5.7202
" />
<path d="M7.0105 5.7202
L7.0105 5.9524
" />
<path d="M7.0105 5.9524
L6.7524 5.9524
" />
<path d="M6.7524 5.9524
L6.7524 6.1847
" />
<path d="M6.7524 6.1847
L7.0105 6.1847
" />
<path d="M7.0105 6.1847
L7.0105 6.4169
" />
<path d="M7.0105 6.4169
L6.7524 6.4169
" />
<path d="M6.7524 6.4169
L6.4944 6.4169
" />
<path d="M6.4944 6.4169
L6.4944 6.1847
" />
<path d="M6.4944 6.1847
L6.2363 6.1847
" />
<path d="M6.2363 6.1847
L6.2363 6.4169
" />
<path d="M6.2363 6.4169
L5.9782 6.4169
" />
<path d="M5.9782 6.4169
L5.7202 6.4169
" />
<path d="M5.7202 6.4169
L5.7202 6.1847
" />
<path d="M5.7202 6.1847
L5.9782 6.1847
" />
<path d="M5.9782 6.1847
L5.9782 5.9524
" />
<path d="M5.9782 5.9524
L5.9782 5.7202
" />
<path d="M5.9782 5.7202
L5.7202 5.7202
" />
<path d="M5.7202 5.7202
L5.7202 5.9524
" />
<path d="M5.7202 5.9524
L5.4621 5.9524
" />
<path d="M5.4621 5.9524
L5.4621 5.7202
" />
<path d="M5.4621 5.7202
L5.2040 5.7202
" />
<path d="M5.2040 5.7202
L5.2040 5.9524
" />
<path d="M5.2040 5.9524
L5.2040 6.1847
" />
<path d="M5.2040 6.1847
L5.4621 6.1847
" />
<path d="M5.4621 6.1847
L5.4621 6.4169
" />
<path d="M5.4621 6.4169
L5.2040 6.4169
" />
<path d="M5.2040 6.4169
L5.2040 6.6492
" />
<path d="M5.2040 6.6492
L5.2040 6.8815
" />
<path d="M5.2040 6.8815
L5.4621 6.8815
" />
<path d="M5.4621 6.8815
L5.4621 6.6492
" />
<path d="M5.4621 6.6492
L5.7202 6.6492
" />
<path d="M5.7202 6.6492
L5.9782 6.6492
" />
<path d="M5.9782 6.6492
L5.9782 6.8815
" />
<path d="M5.9782 6.8815
L5.7202 6.8815
" />
<path d="M5.7202 6.8815
L5.7202 7.1137
" />
<path d="M5.7202 7.1137
L5.9782 7.1137
" />
<path d="M5.9782 7.1137
L5.9782 7.3460
" />
<path d="M5.9782 7.3460
L5.7202 7.3460
" />
<path d="M5.7202 7.3460
L5.4621 7.3460
" />
<path d="M5.4621 7.3460
L5.4621 7.1137
" />
<path d="M5.4621 7.1137
L5.2040 7.1137
" />
<path d="M5.2040 7.1137
L5.2040 7.3460
" />
<path d="M5.2040 7.3460
L5.2040 7.5782
" />
<path d="M5.2040 7.5782
L5.4621 7.5782
" />
<path d="M5.4621 7.5782
L5.4621 7.8105
" />
<path d="M5.4621 7.8105
L5.2040 7.8105
" />
<path d="M5.2040 7.8105
L5.2040 8.0427
" />
<path d="M5.2040 8.0427
L5.2040 8.2750
" />
<path d="M5.2040 8.2750
L5.4621 8.2750
" />
<path d="M5.4621 8.2750
L5.4621 8.0427
" />
<path d="M5.4621 8.0427
L5.7202 8.0427
" />
<path d="M5.7202 8.0427
L5.7202 8.2750
" />
<path d="M5.7202 8.2750
L5.9782 8.2750
" />
<path d="M5.9782 8.2750
L5.9782 8.0427
" />
<path d="M5.9782 8.0427
L5.9782 7.8105
" />
<path d="M5.9782 7.8105
L5.7202 7.8105
" />
<path d="M5.7202 7.8105
L5.7202 7.5782
" />
<path d="M5.7202 7.5782
L5.9782 7.5782
" />
<path d="M5.9782 7.5782
L6.2363 7.5782
" />
<path d="M6.2363 7.5782
L6.4944 7.5782
" />
<path d="M6.4944 7.5782
L6.4944 7.8105
" />
<path d="M6.4944 7.8105
L6.2363 7.8105
" />
<path d="M6.2363 7.8105
L6.2363 8.0427
" />
<path d="M6.2363 8.0427
L6.2363 8.2750
" />
<path d="M6.2363 8.2750
L6.4944 8.2750
" />
<path d="M6.4944 8.2750
L6.4944 8.0427
" />
<path d="M6.4944 8.0427
L6.7524 8.0427
" />
<path d="M6.7524 8.0427
L6.7524 8.2750
" />
<path d="M6.7524 8.2750
L7.0105 8.2750
" />
<path d="M7.0105 8.2750
L7.0105 8.0427
" />
<path d="M7.0105 8.0427
L7.0105 7.8105
" />
<path d="M7.0105 7.8105
L6.7524 7.8105
" />
<path d="M6.7524 7.8105
L6.7524 7.5782
" />
<path d="M6.7524 7.5782
L7.0105 7.5782
" />
<path d="M7.0105 7.5782
L7.0105 7.3460
" />
<path d="M7.0105 7.3460
L7.0105 7.1137
" />
<path d="M7.0105 7.1137
L6.7524 7.1137
" />
<path d="M6.7524 7.1137
L6.7524 7.3460
" />
<path d="M6.7524 7.3460
L6.4944 7.3460
" />
<path d="M6.4944 7.3460
L6.2363 7.3460
" />
<path d="M6.2363 7.3460
L6.2363 7.1137
" />
<path d="M6.2363 7.1137
L6.4944 7.1137
" />
<path d="M6.4944 7.1137
L6.4944 6.8815
" />
<path d="M6.4944 6.8815
L6.2363 6.8815
" />
<path d="M6.2363 6.8815
L6.2363 6.6492
" />
<path d="M6.2363 6.6492
L6.4944 6.6492
" />
<path d="M6.4944 6.6492
L6.7524 6.6492
" />
<path d="M6.7524 6.6492
L6.7524 6.8815
" />
<path d="M6.7524 6.8815
L7.0105 6.8815
" />
<path d="M7.0105 6.8815
L7.0105 6.6492
" />
<path d="M7.0105 6.6492
L7.2685 6.6492
" />
<path d="M7.2685 6.6492
L7.2685 6.8815
" />
<path d="M7.2685 6.8815
L7.5266 6.8815
" />
<path d="M7.5266 6.8815
L7.5266 6.6492
" />
<path d="M7.5266 6.6492
L7.7847 6.6492
" />
<path d="M7.7847 6.6492
L8.0427 6.6492
" />
<path d="M8.0427 6.6492
L8.0427 6.8815
" />
<path d="M8.0427 6.8815
L7.7847 6.8815
" />
<path d="M7.7847 6.8815
L7.7847 7.1137
" />
<path d="M7.7847 7.1137
L8.0427 7.1137
" />
<path d="M8.0427 7.1137
L8.0427 7.3460
" />
<path d="M8.0427 7.3460
L7.7847 7.3460
" />
<path d="M7.7847 7.3460
L7.5266 7.3460
" />
<path d="M7.5266 7.3460
L7.5266 7.1137
" />
<path d="M7.5266 7.1137
L7.2685 7.1137
" />
<path d="M7.2685 7.1137
L7.2685 7.3460
" />
<path d="M7.2685 7.3460
L7.2685 7.5782
" />
<path d="M7.2685 7.5782
L7.5266 7.5782
" />
<path d="M7.5266 7.5782
L7.5266 7.8105
" />
<path d="M7.5266 7.8105
L7.2685 7.8105
" />
<path d="M7.2685 7.8105
L7.2685 8.0427
" />
<path d="M7.2685 8.0427
L7.2685 8.2750
" />
<path d="M7.2685 8.2750
L7.5266 8.2750
" />
<path d="M7.5266 8.2750
L7.5266 8.0427
" />
<path d="M7.5266 8.0427
L7.7847 8.0427
" />
<path d="M7.7847 8.0427
L7.7847 8.2750
" />
<path d="M7.7847 8.2750
L8.0427 8.2750
" />
<path d="M8.0427 8.2750
L8.0427 8.0427
" />
<path d="M8.0427 8.0427
L8.0427 7.8105
" />
<path d="M8.0427 7.8105
L7.7847 7.8105
" />
<path d="M7.7847 7.8105
L7.7847 7.5782
" />
<path d="M7.7847 7.5782
L8.0427 7.5782
" />
<path d="M8.0427 7.5782
L8.3008 7.5782
" />
<path d="M8.3008 7.5782
L8.5589 7.5782
" />
<path d="M8.5589 7.5782
L8.5589 7.8105
" />
<path d="M8.5589 7.8105
L8.3008 7.8105
" />
<path d="M8.3008 7.8105
L8.3008 8.0427
" />
<path d="M8.3008 8.0427
L8.3008 8.2750
" />
<path d="M8.3008 8.2750
L8.5589 8.2750
" />
<path d="M8.5589 8.2750
L8.5589 8.0427
" />
<path d="M8.5589 8.0427
L8.8169 8.0427
" />
<path d="M8.8169 8.0427
L8.8169 8.2750
" />
<path d="M8.8169 8.2750
L9.0750 8.2750
" />
<path d="M9.0750 8.2750
L9.0750 8.0427
" />
<path d="M9.0750 8.0427
L9.0750 7.8105
" />
<path d="M9.0750 7.8105
L8.8169 7.8105
" />
<path d="M8.8169 7.8105
L8.8169 7.5782
" />
<path d="M8.8169 7.5782
L9.0750 7.5782
" />
<path d="M9.0750 7.5782
L9.0750 7.3460
" />
<path d="M9.0750 7.3460
L9.0750 7.1137
" />
<path d="M9.0750 7.1137
L8.8169 7.1137
" />
<path d="M8.8169 7.1137
L8.8169 7.3460
" />
<path d="M8.8169 7.3460
L8.5589 7.3460
" />
<path d="M8.5589 7.3460
L8.3008 7.3460
" />
<path d="M8.3008 7.3460
L8.3008 7.1137
" />
<path d="M8.3008 7.1137
L8.5589 7.1137
" />
<path d="M8.5589 7.1137
L8.5589 6.8815
" />
<path d="M8.5589 6.8815
L8.3008 6.8815
" />
<path d="M8.3008 6.8815
L8.3008 6.6492
" />
<path d="M8.3008 6.6492
L8.5589 6.6492
" />
<path d="M8.5589 6.6492
L8.8169 6.6492
" />
<path d="M8.8169 6.6492
L8.8169 6.8815
" />
<path d="M8.8169 6.8815
L9.0750 6.8815
" />
<path d="M9.0750 6.8815
L9.0750 6.6492
" />
<path d="M9.0750 6.6492
L9.0750 6.4169
" />
<path d="M9.0750 6.4169
L8.8169 6.4169
" />
<path d="M8.8169 6.4169
L8.8169 6.1847
" />
<path d="M8.8169 6.1847
L9.0750 6.1847
" />
<path d="M9.0750 6.1847
L9.0750 5.9524
" />
<path d="M9.0750 5.9524
L9.0750 5.7202
" />
<path d="M9.0750 5.7202
L8.8169 5.7202
" />
<path d="M8.8169 5.7202
L8.8169 5.9524
" />
<path d="M8.8169 5.9524
L8.5589 5.9524
" />
<path d="M8.5589 5.9524
L8.5589 5.7202
" />
<path d="M8.5589 5.7202
L8.3008 5.7202
" />
<path d="M8.3008 5.7202
L8.3008 5.9524
" />
<path d="M8.3008 5.9524
L8.3008 6.1847
" />
<path d="M8.3008 6.1847
L8.5589 6.1847
" />
<path d="M8.5589 6.1847
L8.5589 6.4169
" />
<path d="M8.5589 6.4169
L8.3008 6.4169
" />
<path d="M8.3008 6.4169
L8.0427 6.4169
" />
<path d="M8.0427 6.4169
L8.0427 6.1847
" />
<path d="M8.0427 6.1847
L7.7847 6.1847
" />
<path d="M7.7847 6.1847
L7.7847 6.4169
" />
<path d="M7.7847 6.4169
L7.5266 6.4169
" />
<path d="M7.5266 6.4169
L7.2685 6.4169
" />
<path d="M7.2685 6.4169
L7.2685 6.1847
" />
<path d="M7.2685 6.1847
L7.5266 6.1847
" />
<path d="M7.5266 6.1847
L7.5266 5.9524
" />
<path d="M7.5266 5.9524
L7.2685 5.9524
" />
<path d="M7.2685 5.9524
L7.2685 5.7202
" />
<path d="M7.2685 5.7202
L7.5266 5.7202
" />
<path d="M7.5266 5.7202
L7.7847 5.7202
" />
<path d="M7.7847 5.7202
L7.7847 5.9524
" />
<path d="M7.7847 5.9524
L8.0427 5.9524
" />
<path d="M8.0427 5.9524
L8.0427 5.7202
" />
<path d="M8.0427 5.7202
L8.0427 5.4879
" />
<path d="M8.0427 5.4879
L8.0427 5.2556
" />
<path d="M8.0427 5.2556
L7.7847 5.2556
" />
<path d="M7.7847 5.2556
L7.7847 5.4879
" />
<path d="M7.7847 5.4879
L7.5266 5.4879
" />
<path d="M7.5266 5.4879
L7.2685 5.4879
" />
<path d="M7.2685 5.4879
L7.2685 5.2556
" />
<path d="M7.2685 5.2556
L7.5266 5.2556
" />
<path d="M7.5266 5.2556
L7.5266 5.0234
" />
<path d="M7.5266 5.0234
L7.2685 5.0234
" />
<path d="M7.2685 5.0234
L7.2685 4.7911
" />
<path d="M7.2685 4.7911
L7.5266 4.7911
" />
<path d="M7.5266 4.7911
L7.7847 4.7911
" />
<path d="M7.7847 4.7911
L7.7847 5.0234
" />
<path d="M7.7847 5.0234
L8.0427 5.0234
" />
<path d="M8.0427 5.0234
L8.0427 4.7911
" />
<path d="M8.0427 4.7911
L8.3008 4.7911
" />
<path d="M8.3008 4.7911
L8.5589 4.7911
" />
<path d="M8.5589 4.7911
L8.5589 5.0234
" />
<path d="M8.5589 5.0234
L8.3008 5.0234
" />
<path d="M8.3008 5.0234
L8.3008 5.2556
" />
<path d="M8.3008 5.2556
L8.3008 5.4879
" />
<path d="M8.3008 5.4879
L8.5589 5.4879
" />
<path d="M8.5589 5.4879
L8.5589 5.2556
" />
<path d="M8.5589 5.2556
L8.8169 5.2556
" />
<path d="M8.8169 5.2556
L8.8169 5.4879
" />
<path d="M8.8169 5.4879
L9.0750 5.4879
" />
<path d="M9.0750 5.4879
L9.0750 5.2556
" />
<path d="M9.0750 5.2556
L9.0750 5.0234
" />
<path d="M9.0750 5.0234
L8.8169 5.0234
" />
<path d="M8.8169 5.0234
L8.8169 4.7911
" />
<path d="M8.8169 4.7911
L9.0750 4.7911
" />
<path d="M9.0750 4.7911
L9.0750 4.5589
" />
<path d="M9.0750 4.5589
L9.0750 4.3266
" />
<path d="M9.0750 4.3266
L8.8169 4.3266
" />
<path d="M8.8169 4.3266
L8.8169 4.5589
" />
<path d="M8.8169 4.5589
L8.5589 4.5589
" />
<path d="M8.5589 4.5589
L8.3008 4.5589
" />
<path d="M8.3008 4.5589
L8.3008 4.3266
" />
<path d="M8.3008 4.3266
L8.5589 4.3266
" />
<path d="M8.5589 4.3266
L8.5589 4.0944
" />
<path d="M8.5589 4.0944
L8.3008 4.0944
" />
<path d="M8.3008 4.0944
L8.3008 3.8621
" />
<path d="M8.3008 3.8621
L8.5589 3.8621
" />
<path d="M8.5589 3.8621
L8.8169 3.8621
" />
<path d="M8.8169 3.8621
L8.8169 4.0944
" />
<path d="M8.8169 4.0944
L9.0750 4.0944
" />
<path d="M9.0750 4.0944
L9.0750 3.8621
" />
<path d="M9.0750 3.8621
L9.0750 3.6298
" />
<path d="M9.0750 3.6298
L8.8169 3.6298
" />
<path d="M8.8169 3.6298
L8.8169 3.3976
" />
<path d="M8.8169 3.3976
L9.0750 3.3976
" />
<path d="M9.0750 3.3976
L9.0750 3.1653
" />
<path d="M9.0750 3.1653
L9.0750 2.9331
" />
<path d="M9.0750 2.9331
L8.8169 2.9331
" />
<path d="M8.8169 2.9331
L8.8169 3.1653
" />
<path d="M8.8169 3.1653
L8.5589 3.1653
" />
<path d="M8.5589 3.1653
L8.5589 2.9331
" />
<path d="M8.5589 2.9331
L8.3008 2.9331
" />
<path d="M8.3008 2.9331
L8.3008 3.1653
" />
<path d="M8.3008 3.1653
L8.3008 3.3976
" />
<path d="M8.3008 3.3976
L8.5589 3.3976
" />
<path d="M8.5589 3.3976
L8.5589 3.6298
" />
<path d="M8.5589 3.6298
L8.3008 3.6298
" />
<path d="M8.3008 3.6298
L8.0427 3.6298
" />
<path d="M8.0427 3.6298
L7.7847 3.6298
" />
<path d="M7.7847 3.6298
L7.7847 3.3976
" />
<path d="M7.7847 3.3976
L8.0427 3.3976
" />
<path d="M8.0427 3.3976
L8.0427 3.1653
" />
<path d="M8.0427 3.1653
L8.0427 2.9331
" />
<path d="M8.0427 2.9331
L7.7847 2.9331
" />
<path d="M7.7847 2.9331
L7.7847 3.1653
" />
<path d="M7.7847 3.1653
L7.5266 3.1653
" />
<path d="M7.5266 3.1653
L7.5266 2.9331
" />
<path d="M7.5266 2.9331
L7.2685 2.9331
" />
<path d="M7.2685 2.9331
L7.2685 3.1653
" />
<path d="M7.2685 3.1653
L7.2685 3.3976
" />
<path d="M7.2685 3.3976
L7.5266 3.3976
" />
<path d="M7.5266 3.3976
L7.5266 3.6298
" />
<path d="M7.5266 3.6298
L7.2685 3.6298
" />
<path d="M7.2685 3.6298
L7.2685 3.8621
" />
<path d="M7.2685 3.8621
L7.2685 4.0944
" />
<path d="M7.2685 4.0944
L7.5266 4.0944
" />
<path d="M7.5266 4.0944
L7.5266 3.8621
" />
<path d="M7.5266 3.8621
L7.7847 3.8621
" />
<path d="M7.7847 3.8621
L8.0427 3.8621
" />
<path d="M8.0427 3.8621
L8.0427 4.0944
" />
<path d="M8.0427 4.0944
L7.7847 4.0944
" />
<path d="M7.7847 4.0944
L7.7847 4.3266
" />
<path d="M7.7847 4.3266
L8.0427 4.3266
" />
<path d="M8.0427 4.3266
L8.0427 4.5589
" />
<path d="M8.0427 4.5589
L7.7847 4.5589
" />
<path d="M7.7847 4.5589
L7.5266 4.5589
" />
<path d="M7.5266 4.5589
L7.5266 4.3266
" />
<path d="M7.5266 4.3266
L7.2685 4.3266
" />
<path d="M7.2685 4.3266
L7.2685 4.5589
" />
<path d="M7.2685 4.5589
L7.0105 4.5589
" />
<path d="M7.0105 4.5589
L6.7524 4.5589
" />
<path d="M6.7524 4.5589
L6.7524 4.3266
" />
<path d="M6.7524 4.3266
L7.0105 4.3266
" />
<path d="M7.0105 4.3266
L7.0105 4.0944
" />
<path d="M7.0105 4.0944
L7.0105 3.8621
" />
<path d="M7.0105 3.8621
L6.7524 3.8621
" />
<path d="M6.7524 3.8621
L6.7524 4.0944
" />
<path d="M6.7524 4.0944
L6.4944 4.0944
" />
<path d="M6.4944 4.0944
L6.4944 3.8621
" />
<path d="M6.4944 3.8621
L6.2363 3.8621
" />
<path d="M6.2363 3.8621
L6.2363 4.0944
" />
<path d="M6.2363 4.0944
L6.2363 4.3266
" />
<path d="M6.2363 4.3266
L6.4944 4.3266
" />
<path d="M6.4944 4.3266
L6.4944 4.5589
" />
<path d="M6.4944 4.5589
L6.2363 4.5589
" />
<path d="M6.2363 4.5589
L5.9782 4.5589
" />
<path d="M5.9782 4.5589
L5.9782 4.3266
" />
<path d="M5.9782 4.3266
L5.7202 4.3266
" />
<path d="M5.7202 4.3266
L5.7202 4.5589
" />
<path d="M5.7202 4.5589
L5.4621 4.5589
" />
<path d="M5.4621 4.5589
L5.2040 4.5589
" />
<path d="M5.2040 4.5589
L5.2040 4.3266
" />
<path d="M5.2040 4.3266
L5.4621 4.3266
" />
<path d="M5.4621 4.3266
L5.4621 4.0944
" />
<path d="M5.4621 4.0944
L5.2040 4.0944
" />
<path d="M5.2040 4.0944
L5.2040 3.8621
" />
<path d="M5.2040 3.8621
L5.4621 3.8621
" />
<path d="M5.4621 3.8621
L5.7202 3.8621
" />
<path d="M5.7202 3.8621
L5.7202 4.0944
" />
<path d="M5.7202 4.0944
L5.9782 4.0944
" />
<path d="M5.9782 4.0944
L5.9782 3.8621
" />
<path d="M5.9782 3.8621
L5.9782 3.6298
" />
<path d="M5.9782 3.6298
L5.9782 3.3976
" />
<path d="M5.9782 3.3976
L5.7202 3.3976
" />
<path d="M5.7202 3.3976
L5.7202 3.6298
" />
<path d="M5.7202 3.6298
L5.4621 3.6298
" />
<path d="M5.4621 3.6298
L5.2040 3.6298
" />
<path d="M5.2040 3.6298
L5.2040 3.3976
" />
<path d="M5.2040 3.3976
L5.4621 3.3976
" />
<path d="M5.4621 3.3976
L5.4621 3.1653
" />
<path d="M5.4621 3.1653
L5.2040 3.1653
" />
<path d="M5.2040 3.1653
L5.2040 2.9331
" />
<path d="M5.2040 2.9331
L5.4621 2.9331
" />
<path d="M5.4621 2.9331
L5.7202 2.9331
" />
<path d="M5.7202 2.9331
L5.7202 3.1653
" />
<path d="M5.7202 3.1653
L5.9782 3.1653
" />
<path d="M5.9782 3.1653
L5.9782 2.9331
" />
<path d="M5.9782 2.9331
L6.2363 2.9331
" />
<path d="M6.2363 2.9331
L6.4944 2.9331
" />
<path d="M6.4944 2.9331
L6.4944 3.1653
" />
<path d="M6.4944 3.1653
L6.2363 3.1653
" />
<path d="M6.2363 3.1653
L6.2363 3.3976
" />
<path d="M6.2363 3.3976
L6.2363 3.6298
" />
<path d="M6.2363 3.6298
L6.4944 3.6298
" />
<path d="M6.4944 3.6298
L6.4944 3.3976
" />
<path d="M6.4944 3.3976
L6.7524 3.3976
" />
<path d="M6.7524 3.3976
L6.7524 3.6298
" />
<path d="M6.7524 3.6298
L7.0105 3.6298
" />
<path d="M7.0105 3.6298
L7.0105 3.3976
" />
<path d="M7.0105 3.3976
L7.0105 3.1653
" />
<path d="M7.0105 3.1653
L6.7524 3.1653
" />
<path d="M6.7524 3.1653
L6.7524 2.9331
" />
<path d="M6.7524 2.9331
L7.0105 2.9331
" />
<path d="M7.0105 2.9331
L7.0105 2.7008
" />
<path d="M7.0105 2.7008
L6.7524 2.7008
" />
<path d="M6.7524 2.7008
L6.7524 2.4685
" />
<path d="M6.7524 2.4685
L7.0105 2.4685
" />
<path d="M7.0105 2.4685
L7.0105 2.2363
" />
<path d="M7.0105 2.2363
L7.0105 2.0040
" />
<path d="M7.0105 2.0040
L6.7524 2.0040
" />
<path d="M6.7524 2.0040
L6.7524 2.2363
" />
<path d="M6.7524 2.2363
L6.4944 2.2363
" />
<path d="M6.4944 2.2363
L6.4944 2.0040
" />
<path d="M6.4944 2.0040
L6.2363 2.0040
" />
<path d="M6.2363 2.0040
L6.2363 2.2363
" />
<path d="M6.2363 2.2363
L6.2363 2.4685
" />
<path d="M6.2363 2.4685
L6.4944 2.4685
" />
<path d="M6.4944 2.4685
L6.4944 2.7008
" />
<path d="M6.4944 2.7008
L6.2363 2.7008
" />
<path d="M6.2363 2.7008
L5.9782 2.7008
" />
<path d="M5.9782 2.7008
L5.9782 2.4685
" />
<path d="M5.9782 2.4685
L5.7202 2.4685
" />
<path d="M5.7202 2.4685
L5.7202 2.7008
" />
<path d="M5.7202 2.7008
L5.4621 2.7008
" />
<path d="M5.4621 2.7008
L5.2040 2.7008
" />
<path d="M5.2040 2.7008
L5.2040 2.4685
" />
<path d="M5.2040 2.4685
L5.4621 2.4685
" />
<path d="M5.4621 2.4685
L5.4621 2.2363
" />
<path d="M5.4621 2.2363
L5.2040 2.2363
" />
<path d="M5.2040 2.2363
L5.2040 2.0040
" />
<path d="M5.2040 2.0040
L5.4621 2.0040
" />
<path d="M5.4621 2.0040
L5.7202 2.0040
" />
<path d="M5.7202 2.0040
L5.7202 2.2363
" />
<path d="M5.7202 2.2363
L5.9782 2.2363
" />
<path d="M5.9782 2.2363
L5.9782 2.0040
" />
<path d="M5.9782 2.0040
L5.9782 1.7718
" />
<path d="M5.9782 1.7718
L5.9782 1.5395
" />
<path d="M5.9782 1.5395
L5.7202 1.5395
" />
<path d="M5.7202 1.5395
L5.7202 1.7718
" />
<path d="M5.7202 1.7718
L5.4621 1.7718
" />
<path d="M5.4621 1.7718
L5.2040 1.7718
" />
<path d="M5.2040 1.7718
L5.2040 1.5395
" />
<path d="M5.2040 1.5395
L5.4621 1.5395
" />
<path d="M5.4621 1.5395
L5.4621 1.3073
" />
<path d="M5.4621 1.3073
L5.2040 1.3073
" />
<path d="M5.2040 1.3073
L5.2040 1.0750
" />
<path d="M5.2040 1.0750
L5.4621 1.0750
" />
<path d="M5.4621 1.0750
L5.7202 1.0750
" />
<path d="M5.7202 1.0750
L5.7202 1.3073
" />
<path d="M5.7202 1.3073
L5.9782 1.3073
" />
<path d="M5.9782 1.3073
L5.9782 1.0750
" />
<path d="M5.9782 1.0750
L6.2363 1.0750
" />
<path d="M6.2363 1.0750
L6.4944 1.0750
" />
<path d="M6.4944 1.0750
L6.4944 1.3073
" />
<path d="M6.4944 1.3073
L6.2363 1.3073
" />
<path d="M6.2363 1.3073
L6.2363 1.5395
" />
<path d="M6.2363 1.5395
L6.2363 1.7718
" />
<path d="M6.2363 1.7718
L6.4944 1.7718
" />
<path d="M6.4944 1.7718
L6.4944 1.5395
" />
<path d="M6.4944 1.5395
L6.7524 1.5395
" />
<path d="M6.7524 1.5395
L6.7524 1.7718
" />
<path d="M6.7524 1.7718
L7.0105 1.7718
" />
<path d="M7.0105 1.7718
L7.0105 1.5395
" />
<path d="M7.0105 1.5395
L7.0105 1.3073
" />
<path d="M7.0105 1.3073
L6.7524 1.3073
" />
<path d="M6.7524 1.3073
L6.7524 1.0750
" />
<path d="M6.7524 1.0750
L7.0105 1.0750
" />
<path d="M7.0105 1.0750
L7.2685 1.0750
" />
<path d="M7.2685 1.0750
L7.2685 1.3073
" />
<path d="M7.2685 1.3073
L7.5266 1.3073
" />
<path d="M7.5266 1.3073
L7.5266 1.0750
" />
<path d="M7.5266 1.0750
L7.7847 1.0750
" />
<path d="M7.7847 1.0750
L8.0427 1.0750
" />
<path d="M8.0427 1.0750
L8.0427 1.3073
" />
<path d="M8.0427 1.3073
L7.7847 1.3073
" />
<path d="M7.7847 1.3073
L7.7847 1.5395
" />
<path d="M7.7847 1.5395
L8.0427 1.5395
" />
<path d="M8.0427 1.5395
L8.0427 1.7718
" />
<path d="M8.0427 1.7718
L7.7847 1.7718
" />
<path d="M7.7847 1.7718
L7.5266 1.7718
" />
<path d="M7.5266 1.7718
L7.5266 1.5395
" />
<path d="M7.5266 1.5395
L7.2685 1.5395
" />
<path d="M7.2685 1.5395
L7.2685 1.7718
" />
<path d="M7.2685 1.7718
L7.2685 2.0040
" />
<path d="M7.2685 2.0040
L7.5266 2.0040
" />
<path d="M7.5266 2.0040
L7.5266 2.2363
" />
<path d="M7.5266 2.2363
L7.2685 2.2363
" />
<path d="M7.2685 2.2363
L7.2685 2.4685
" />
<path d="M7.2685 2.4685
L7.2685 2.7008
" />
<path d="M7.2685 2.7008
L7.5266 2.7008
" />
<path d="M7.5266 2.7008
L7.5266 2.4685
" />
<path d="M7.5266 2.4685
L7.7847 2.4685
" />
<path d="M7.7847 2.4685
L7.7847 2.7008
" />
<path d="M7.7847 2.7008
L8.0427 2.7008
" />
<path d="M8.0427 2.7008
L8.0427 2.4685
" />
<path d="M8.0427 2.4685
L8.0427 2.2363
" />
<path d="M8.0427 2.2363
L7.7847 2.2363
" />
<path d="M7.7847 2.2363
L7.7847 2.0040
" />
<path d="M7.7847 2.0040
L8.0427 2.0040
" />
<path d="M8.0427 2.0040
L8.3008 2.0040
" />
<path d="M8.3008 2.0040
L8.5589 2.0040
" />
<path d="M8.5589 2.0040
L8.5589 2.2363
" />
<path d="M8.5589 2.2363
L8.3008 2.2363
" />
<path d="M8.3008 2.2363
L8.3008 2.4685
" />
<path d="M8.3008 2.4685
L8.3008 2.7008
" />
<path d="M8.3008 2.7008
L8.5589 2.7008
" />
<path d="M8.5589 2.7008
L8.5589 2.4685
" />
<path d="M8.5589 2.4685
L8.8169 2.4685
" />
<path d="M8.8169 2.4685
L8.8169 2.7008
" />
<path d="M8.8169 2.7008
L9.0750 2.7008
" />
<path d="M9.0750 2.7008
L9.0750 2.4685
" />
<path d="M9.0750 2.4685
L9.0750 2.2363
" />
<path d="M9.0750 2.2363
L8.8169 2.2363
" />
<path d="M8.8169 2.2363
L8.8169 2.0040
" />
<path d="M8.8169 2.0040
L9.0750 2.0040
" />
<path d="M9.0750 2.0040
L9.0750 1.7718
" />
<path d="M9.0750 1.7718
L9.0750 1.5395
" />
<path d="M9.0750 1.5395
L8.8169 1.5395
" />
<path d="M8.8169 1.5395
L8.8169 1.7718
" />
<path d="M8.8169 1.7718
L8.5589 1.7718
" />
<path d="M8.5589 1.7718
L8.3008 1.7718
" />
<path d="M8.3008 1.7718
L8.3008 1.5395
" />
<path d="M8.3008 1.5395
L8.5589 1.5395
" />
<path d="M8.5589 1.5395
L8.5589 1.3073
" />
<path d="M8.5589 1.3073
L8.3008 1.3073
" />
<path d="M8.3008 1.3073
L8.3008 1.0750
" />
<path d="M8.3008 1.0750
L8.5589 1.0750
" />
<path d="M8.5589 1.0750
L8.8169 1.0750
" />
<path d="M8.8169 1.0750
L8.8169 1.3073
" />
<path d="M8.8169 1.3073
L9.0750 1.3073
" />
<path d="M9.0750 1.3073
L9.0750 1.0750
" />
<path d="M9.0750 1.0750
L9.0750 0.6750
" />
<path d="M9.0750 0.6750
L1.0750 0.6750
" />
<path d="M1.0750 0.6750
L1.0750 1.0750
" />
<path style="fill:none;
stroke:#000000; stroke-width:0.1500; stroke-opacity:1;
stroke-linecap:round; stroke-linejoin:round;fill:none"
d="M 0.0750,0.0750
10.0750,0.0750
10.0750,10.0750
0.0750,10.0750
Z" />
</g>
</svg>
